<svg width="106" height="112" viewBox="0 0 106 112" fill="none" xmlns="http://www.w3.org/2000/svg">
<path d="M0.375 22.363H24.3198V29.0112H0.375V22.363ZM88.234 18.4848C93.5755 25.687 98.1803 32.3352 99.2854 41.0148H105.364C105.916 18.6695 86.0237 -0.167098 63.9208 0.386918V6.29647C72.762 7.4045 84.7343 13.6833 88.234 18.4848Z" fill="#9E845C"/>
<path d="M88.234 18.4848L69.8149 36.2134L88.234 18.4848ZM71.4726 41.0149L99.2854 41.0148L71.4726 41.0149Z" fill="#9E845C"/>
<path d="M63.9208 6.29647V33.8126V6.29647ZM65.0259 69.2697H91.5495C93.5756 69.2697 95.4174 68.7157 96.891 67.423C98.5487 66.1303 99.6538 64.4682 100.022 62.6215L105.364 41.0148M56.5531 41.1995H37.2132H56.5531Z" fill="#9E845C"/>
<path d="M24.3198 29.0112L37.2132 41.1995H26.7143C24.504 41.0148 22.8463 43.6003 23.3989 45.6317L27.6353 62.6215C28.5562 66.4996 32.0558 69.2697 36.108 69.2697H65.2101" fill="#9E845C"/>
<path d="M65.0259 69.2697L44.9491 87.3676L65.0259 69.2697ZM83.0767 87.1829L65.0259 69.2697L83.0767 87.1829ZM78.2877 99.7407H49.3697H78.2877Z" fill="#9E845C"/>
<path d="M89.8917 61.5443H93.0229H89.8917ZM76.8141 61.5443H79.9454H76.8141ZM83.2608 61.5443H86.5762H83.2608Z" fill="#9E845C"/>
<path d="M49.5539 97.7093C49.5539 105.281 43.4756 111.375 35.9238 111.375C28.372 111.375 22.2936 105.281 22.2936 97.7093C22.2936 90.1377 28.372 84.0435 35.9238 84.0435C43.4756 84.0435 49.5539 90.1377 49.5539 97.7093ZM35.9238 90.1376C31.6874 90.1376 28.372 93.4618 28.372 97.7093C28.372 101.957 31.6874 105.281 35.9238 105.281C40.1602 105.281 43.4757 101.957 43.4757 97.7093C43.4757 93.4618 39.976 90.1376 35.9238 90.1376ZM105.364 97.7093C105.364 105.281 99.2855 111.375 91.7336 111.375C84.1818 111.375 78.1035 105.281 78.1035 97.7093C78.1035 90.1377 84.1818 84.0435 91.7336 84.0435C99.2855 84.0435 105.364 90.1377 105.364 97.7093ZM91.7336 90.1376C87.4973 90.1376 84.1817 93.4618 84.1817 97.7093C84.1817 101.957 87.4973 105.281 91.7336 105.281C95.97 105.281 99.2854 101.957 99.2854 97.7093C99.2854 93.4618 95.97 90.1376 91.7336 90.1376Z" fill="#9E845C"/>
<path d="M71.4726 41.1995C71.4726 45.2623 68.1572 48.5864 64.105 48.5864C60.0528 48.5864 56.5531 45.2623 56.5531 41.1995C56.5531 37.1367 59.8686 33.8126 64.105 33.8126C68.3414 33.8126 71.4726 37.1367 71.4726 41.1995Z" fill="#9E845C"/>
<path d="M24.3198 29.0112V22.363H0.375V29.0112H24.3198ZM24.3198 29.0112L37.2131 41.1995M88.234 18.4848C93.5755 25.687 98.1803 32.3352 99.2854 41.0148M88.234 18.4848C84.7343 13.6833 72.762 7.4045 63.9208 6.29647M88.234 18.4848L69.8149 36.2134M99.2854 41.0148H105.364M99.2854 41.0148L71.4726 41.0148M105.364 41.0148C105.916 18.6695 86.0237 -0.167098 63.9208 0.386918V6.29647M105.364 41.0148L100.022 62.6215C99.6538 64.4682 98.5487 66.1303 96.891 67.423C95.4174 68.7157 93.5756 69.2697 91.5495 69.2697H65.0259M63.9208 6.29647V33.8126M65.0259 69.2697L44.9491 87.3676M65.0259 69.2697L83.0767 87.1829M56.5531 41.1995H37.2131M56.5531 41.1995C56.5531 45.2623 60.0528 48.5864 64.105 48.5864C68.1572 48.5864 71.4726 45.2623 71.4726 41.1995C71.4726 37.1367 68.3414 33.8126 64.105 33.8126C59.8686 33.8126 56.5531 37.1367 56.5531 41.1995ZM37.2131 41.1995H26.7143C24.504 41.0148 22.8463 43.6003 23.3989 45.6317L27.6353 62.6215C28.5562 66.4996 32.0558 69.2697 36.108 69.2697H65.2101M78.2877 99.7407H49.3697M89.8917 61.5443H93.0229M76.8141 61.5443H79.9453M83.2608 61.5443H86.5762M49.5539 97.7093C49.5539 105.281 43.4756 111.375 35.9238 111.375C28.372 111.375 22.2936 105.281 22.2936 97.7093C22.2936 90.1377 28.372 84.0435 35.9238 84.0435C43.4756 84.0435 49.5539 90.1377 49.5539 97.7093ZM35.9238 90.1376C31.6874 90.1376 28.372 93.4618 28.372 97.7093C28.372 101.957 31.6874 105.281 35.9238 105.281C40.1602 105.281 43.4757 101.957 43.4757 97.7093C43.4757 93.4618 39.976 90.1376 35.9238 90.1376ZM105.364 97.7093C105.364 105.281 99.2855 111.375 91.7336 111.375C84.1818 111.375 78.1035 105.281 78.1035 97.7093C78.1035 90.1377 84.1818 84.0435 91.7336 84.0435C99.2855 84.0435 105.364 90.1377 105.364 97.7093ZM91.7336 90.1376C87.4973 90.1376 84.1817 93.4618 84.1817 97.7093C84.1817 101.957 87.4973 105.281 91.7336 105.281C95.97 105.281 99.2854 101.957 99.2854 97.7093C99.2854 93.4618 95.97 90.1376 91.7336 90.1376Z" stroke="black" stroke-width="0.75" stroke-linecap="round" stroke-linejoin="round"/>
</svg>
