<svg width="114" height="119" viewBox="0 0 114 119" fill="none" xmlns="http://www.w3.org/2000/svg">
<path d="M105.564 0.411602H23.7729C19.4788 0.411602 15.9962 4.17791 15.9962 8.82185V93.0711H70.5688V87.6592C70.5688 87.6592 70.2308 87.4398 70.0955 87.2935C68.9121 86.0137 68.6077 84.0391 69.3177 82.3936C67.7286 81.772 66.6805 80.1631 66.6805 78.3348C66.6805 76.5064 67.7286 74.8975 69.3177 74.2758C68.6077 72.6303 68.9121 70.6923 70.0955 69.3759C71.279 68.0961 73.1047 67.7671 74.5924 68.535C75.1672 66.8164 76.6551 65.6827 78.3457 65.6827C80.0363 65.6827 81.524 66.8164 82.0988 68.535C83.6203 67.7671 85.4124 68.0961 86.5959 69.3759C87.7793 70.6558 88.0835 72.6304 87.3735 74.2393C88.9627 74.861 90.0107 76.4698 90.0107 78.2982C90.0107 80.1265 88.9627 81.7355 87.3735 82.3571C88.0835 84.0026 87.7793 85.9406 86.5959 87.2204C86.4606 87.3667 86.2915 87.4398 86.1563 87.5495V104.516C87.3059 105.211 88.5906 105.65 90.0107 105.65C94.3049 105.65 97.7877 101.884 97.7877 97.2396V8.78525C97.7877 4.1413 101.27 0.375 105.564 0.375V0.411602ZM62.7245 15.1479H70.5013H62.7245ZM43.2487 15.1479H58.8361H43.2487ZM37.3991 25.6791H76.3507H37.3991ZM27.6614 38.331H37.3991H27.6614ZM27.6614 48.8622H49.0982H27.6614ZM27.6614 69.9244H60.7634H27.6614ZM27.6614 59.3934H66.6128H27.6614ZM52.9866 48.8622H86.0886H52.9866ZM41.2876 38.331H86.0886H41.2876Z" fill="#9E845C"/>
<path d="M105.564 0.411602C101.27 0.411602 97.7877 4.17791 97.7877 8.82185V13.027H113.375V8.82185C113.375 4.17791 109.892 0.411602 105.598 0.411602H105.564Z" fill="#9E845C"/>
<path d="M86.1225 105.723H89.9771C88.557 105.723 87.2721 105.284 86.1225 104.589V105.723Z" fill="#9E845C"/>
<path d="M15.9623 93.0711H0.375V97.2762C0.375 101.92 3.85761 105.686 8.15174 105.686H70.5351V93.0345H15.9623V93.0711Z" fill="#9E845C"/>
<path d="M86.1225 87.6226C84.939 88.5733 83.3836 88.8293 82.0311 88.1346C81.4563 89.8532 79.9686 90.9867 78.278 90.9867C76.5874 90.9867 75.0997 89.8532 74.5249 88.1346C73.2063 88.8293 71.6509 88.6099 70.5013 87.6592V118.375L78.278 112.049L86.0548 118.375V87.6226H86.1225Z" fill="#9E845C"/>
<path d="M105.564 0.411602H23.7729C19.4788 0.411602 15.9962 4.17791 15.9962 8.82185V93.0711H70.5688V87.6592C70.5688 87.6592 70.2308 87.4398 70.0955 87.2935C68.9121 86.0137 68.6077 84.0391 69.3177 82.3936C67.7286 81.772 66.6805 80.1631 66.6805 78.3348C66.6805 76.5064 67.7286 74.8975 69.3177 74.2758C68.6077 72.6303 68.9121 70.6923 70.0955 69.3759C71.279 68.0961 73.1047 67.7671 74.5924 68.535C75.1672 66.8164 76.6551 65.6827 78.3457 65.6827C80.0363 65.6827 81.524 66.8164 82.0988 68.535C83.6203 67.7671 85.4124 68.0961 86.5959 69.3759C87.7793 70.6558 88.0835 72.6304 87.3735 74.2393C88.9627 74.861 90.0107 76.4698 90.0107 78.2982C90.0107 80.1265 88.9627 81.7355 87.3735 82.3571C88.0835 84.0026 87.7793 85.9406 86.5959 87.2204C86.4606 87.3667 86.2915 87.4398 86.1563 87.5495V104.516C87.3059 105.211 88.5906 105.65 90.0107 105.65C94.3049 105.65 97.7877 101.884 97.7877 97.2396V8.78525C97.7877 4.1413 101.27 0.375 105.564 0.375V0.411602ZM105.564 0.411602C101.27 0.411602 97.7877 4.17791 97.7877 8.82185V13.027H113.375V8.82185C113.375 4.17791 109.892 0.411602 105.598 0.411602H105.564ZM62.7245 15.1479H70.5013M58.8361 15.1479H43.2487H58.8022M37.3991 25.6791H76.3507M27.6614 38.331H37.3991M49.0982 48.8622H27.6614H49.0643M27.6614 69.9244H60.7634M27.6614 59.3934H66.6128M52.9866 48.8622H86.0886M41.2876 38.331H86.0886M86.1225 105.723H89.9771C88.557 105.723 87.2721 105.284 86.1225 104.589V105.723ZM15.9623 93.0711H0.375V97.2762C0.375 101.92 3.85761 105.686 8.15174 105.686H70.5351V93.0345H15.9623V93.0711ZM86.1225 87.6226C84.939 88.5733 83.3836 88.8293 82.0311 88.1346C81.4563 89.8532 79.9686 90.9867 78.278 90.9867C76.5874 90.9867 75.0997 89.8532 74.5249 88.1346C73.2063 88.8293 71.6509 88.6099 70.5013 87.6592V118.375L78.278 112.049L86.0548 118.375V87.6226H86.1225Z" stroke="black" stroke-width="0.75" stroke-linecap="round" stroke-linejoin="round"/>
</svg>
