<svg width="112" height="101" viewBox="0 0 112 101" fill="none" xmlns="http://www.w3.org/2000/svg">
<path d="M96.6704 31.791C95.0531 30.525 93.2741 29.3564 91.4305 28.3176M96.6704 31.791V31.7261C111.161 43.0551 115.787 63.5707 106.73 80.3208C106.18 81.3595 105.565 82.3334 104.918 83.3072C99.258 91.9095 90.0071 97.9798 79.9153 99.7327C77.9099 100.09 75.9045 100.317 73.8991 100.349C62.7076 100.804 50.4487 95.1557 43.4621 86.1638C34.0496 74.4453 32.0118 57.7276 39.613 43.6719C41.4243 40.2634 43.7209 37.277 46.3085 34.6801C46.3732 34.6476 46.535 34.4528 46.535 34.4528C50.5135 35.7188 54.136 37.8937 57.0794 40.7828C56.9177 40.8802 56.1739 41.432 56.0445 41.5619C53.5863 43.6719 51.4513 46.2363 49.8341 49.2552C44.0119 60 46.3084 73.017 54.6535 81.1648C61.8665 88.4037 73.5434 90.7084 82.8588 86.878C89.7484 84.1512 95.4412 78.503 97.9641 71.4913C98.3199 70.6473 98.611 69.7708 98.8051 68.8944C100.908 61.1036 99.1932 52.404 94.3414 45.9766C92.0772 42.9252 89.1661 40.4257 85.8346 38.5754C80.2388 35.524 74.0285 34.68 68.2386 35.7837C65.3275 32.213 61.802 29.1616 57.8559 26.8244C57.9206 26.7919 58.2439 26.6621 58.3086 26.6621C66.3302 23.2861 75.4517 22.7018 84.088 25.2987C84.088 25.2663 84.088 25.2338 84.088 25.2338C84.6379 25.3961 85.1553 25.5584 85.6729 25.7532M96.6704 31.791C95.0531 30.4925 93.3065 29.3564 91.4305 28.3176M96.6704 31.791C95.0531 30.4925 93.2741 29.3564 91.398 28.3176C91.0746 28.1228 90.7511 27.9605 90.3953 27.7982L102.687 21.8253C102.945 21.6955 103.139 21.5981 103.301 21.5007M91.4305 28.3176C89.5544 27.2789 87.6459 26.4349 85.6729 25.7532M91.4305 28.3176C89.5544 27.2789 87.6136 26.4349 85.6729 25.7532M85.6729 25.7532L83.8938 11.5026C83.7968 10.6586 83.8291 10.3015 84.2172 9.94444L103.366 21.5007M103.366 21.5007H103.301M103.366 21.5007C103.916 21.1436 103.98 20.819 103.916 19.9101L103.075 12.9634C102.978 11.8921 103.139 11.4052 102.299 10.8858L106.697 13.288M103.366 21.5007L109.835 25.3961C110.191 25.2013 110.417 25.039 110.547 24.8442C110.676 24.5846 110.708 24.2599 110.676 23.7081L110.708 23.6432L109.867 16.6964C109.77 15.5603 109.932 15.0734 108.929 14.5215M103.301 21.5007L109.77 25.3961M38.3515 8.51613L17.3593 11.1455C17.3593 11.1131 17.3593 11.0806 17.3593 11.0806C17.3917 10.8858 17.4888 10.6586 17.6181 10.3664L20.7556 4.52339L20.9172 4.19879C21.3701 2.21864 23.5374 2.47833 25.1223 2.21864C26.6102 2.02387 32.0764 1.34218 33.4673 1.17987L37.9634 6.53599H37.931C38.5779 7.37998 38.6749 7.7046 38.3515 8.51613ZM38.3515 8.51613L47.2789 7.41247C47.2789 7.41247 47.2788 7.37999 47.2465 7.34753C47.1494 7.18522 47.02 6.99045 46.826 6.76322L42.1358 1.60187C41.3272 0.238491 40.3893 0.238485 39.0308 0.530638C38.0604 0.660484 34.5023 1.08248 33.4673 1.21232L37.9634 6.56846C38.6103 7.41246 38.7073 7.73707 38.3839 8.54861L38.3515 8.51613ZM108.929 14.5215L107.959 14.0021L106.697 13.288M108.929 14.5215L108.897 14.489M106.697 13.288L95.6999 7.25014L94.4062 6.53599L93.4359 6.01662C92.9507 5.75692 92.5947 5.72447 92.2713 5.82186C91.9478 5.91924 91.5921 6.14647 91.1069 6.40616L84.8643 9.48999C84.6378 9.61983 84.4438 9.71722 84.3144 9.84706C84.3144 9.84706 84.282 9.84707 84.2497 9.87953C84.2497 9.87953 84.2173 9.87951 84.1849 9.91198L103.334 21.4683C103.883 21.1112 103.948 20.7865 103.883 19.8776L103.042 12.9309C102.945 11.8597 103.075 11.3403 102.266 10.8534L106.665 13.2555L107.927 13.9697L108.897 14.489M108.897 14.489C109.9 15.0409 109.738 15.5278 109.835 16.664L110.676 23.6107M110.676 23.6107C110.708 24.1625 110.676 24.4871 110.547 24.7468C110.579 24.6819 110.611 24.5521 110.611 24.4872C110.611 24.4222 110.644 24.3898 110.676 24.2924C110.676 24.0976 110.676 23.8704 110.676 23.6107ZM40.1628 21.5656C39.9688 21.5656 39.7747 21.5656 39.613 21.5656C39.8071 21.5656 39.9688 21.5656 40.1628 21.5656ZM37.931 21.5656C36.6695 21.5656 35.3757 21.663 34.0819 21.8253C35.3757 21.663 36.6372 21.5981 37.931 21.5656ZM68.271 35.7837C65.3599 32.1805 61.8665 29.1616 57.888 26.8244C52.5834 23.7081 46.5348 21.8253 40.1304 21.5981C39.9363 21.5981 39.7747 21.5981 39.5806 21.5981C39.0307 21.5981 38.4808 21.5981 37.8986 21.5981C36.6371 21.5981 35.3433 21.6955 34.0495 21.8578C33.9848 21.8578 33.9201 21.8578 33.823 21.8578C31.7206 22.1175 29.6506 22.5719 27.6775 23.1562C10.0816 28.3825 -1.65994 45.7818 0.668933 64.7068C2.86842 82.3983 16.7124 95.74 33.4996 97.9798C33.4996 97.9798 33.4996 97.9798 33.4996 98.0122C36.7665 98.4342 40.0335 98.4342 43.3004 98.0447C47.0525 97.5902 50.5456 96.5839 53.8449 95.1556C49.7693 92.7535 46.3085 89.7021 43.4945 86.2288C42.9123 86.3586 42.4918 86.4235 41.8772 86.4885C27.3217 88.3063 14.06 77.9186 12.2487 63.2785C10.4373 48.6384 20.7555 35.2968 35.311 33.479C38.0603 33.1219 40.745 33.2517 43.3326 33.7387C43.559 33.7711 43.8179 33.8036 44.0443 33.8685C44.8853 34.0633 45.7585 34.258 46.5671 34.5177C50.5456 35.7837 54.1683 37.9586 57.1118 40.8477C61.2843 44.9378 64.1632 50.4238 64.9395 56.6889C65.5541 61.5581 64.8424 66.265 63.0634 70.4525C62.9987 70.6473 62.9017 70.8096 62.837 70.9719C62.3518 72.0756 61.8019 73.1143 61.155 74.1206C59.4407 76.8799 57.2735 79.282 54.6535 81.2297C57.4999 84.0538 61.3167 86.3262 65.1658 87.5597C66.2008 86.5534 67.1713 85.4821 68.0769 84.346C74.4166 76.4903 77.7807 66.0702 76.4545 55.2281C75.5488 47.8269 72.6053 41.2048 68.2386 35.8162L68.271 35.7837ZM33.8555 21.8253C33.1115 21.9227 32.4 22.0201 31.6884 22.1499L38.1575 8.97059C38.2545 8.80828 38.3192 8.64598 38.3839 8.51613L17.3917 11.1455C17.2947 11.6324 17.4565 11.9571 18.0387 12.6063L27.7423 23.1562C29.7154 22.5719 31.753 22.1175 33.8878 21.8578L33.8555 21.8253ZM38.125 8.97059L31.656 22.1499C32.3676 22.0201 33.1114 21.9227 33.823 21.8253C33.8877 21.8253 33.9524 21.8253 34.0495 21.8253C35.3433 21.663 36.6048 21.5981 37.8986 21.5656C38.4485 21.5656 39.0308 21.5656 39.5806 21.5656C39.7747 21.5656 39.9687 21.5656 40.1304 21.5656L46.9555 8.97059C47.0849 8.74336 47.1494 8.54859 47.2141 8.38629C47.2141 8.35382 47.2141 8.32138 47.2465 8.25646C47.2788 8.12662 47.3112 7.99676 47.3112 7.86692V7.802C47.3112 7.67216 47.2788 7.57477 47.2141 7.44493L38.2867 8.5486C38.222 8.67845 38.1575 8.84075 38.0605 9.00306L38.125 8.97059ZM102.751 21.8253L90.46 27.7982C90.7834 27.9605 91.1069 28.1553 91.4627 28.3176C93.3387 29.3239 95.0854 30.4925 96.735 31.791L109.576 25.5584C109.576 25.5584 109.77 25.461 109.867 25.3961L103.398 21.5007C103.236 21.5981 103.042 21.6955 102.784 21.8253H102.751Z" stroke="black" stroke-width="0.75" stroke-linecap="round" stroke-linejoin="round"/>
</svg>
