<svg width="324" height="40" viewBox="0 0 324 40" fill="none" xmlns="http://www.w3.org/2000/svg">
<mask id="path-1-outside-1_321_1751" maskUnits="userSpaceOnUse" x="-0.25708" y="-0.75" width="324" height="41" fill="black">
<rect fill="white" x="-0.25708" y="-0.75" width="324" height="41"/>
<path d="M13.7429 31.4C13.7429 32.4333 13.8263 33.25 13.9929 33.85C14.1929 34.45 14.4429 34.9167 14.7429 35.25C15.0763 35.5833 15.4763 35.8167 15.9429 35.95C16.4096 36.0833 16.9096 36.1833 17.4429 36.25H5.94292C6.50959 36.1833 7.02625 36.0833 7.49292 35.95C7.95959 35.8167 8.34292 35.5833 8.64292 35.25C8.97625 34.9167 9.22625 34.45 9.39292 33.85C9.59292 33.25 9.69292 32.4333 9.69292 31.4V1.7H9.64292C7.70959 1.7 6.17625 2.05 5.04292 2.75C3.90959 3.41667 3.02625 4.2 2.39292 5.1C1.75959 6 1.30959 6.9 1.04292 7.8C0.809587 8.7 0.626253 9.35 0.49292 9.75L1.94292 1.25H21.4429L22.9429 9.75C22.8096 9.35 22.6096 8.7 22.3429 7.8C22.0763 6.9 21.6263 6 20.9929 5.1C20.3929 4.2 19.5096 3.41667 18.3429 2.75C17.2096 2.05 15.6929 1.7 13.7929 1.7H13.7429V31.4ZM26.6882 27.9C26.0882 29.8333 25.7382 31.35 25.6382 32.45C25.5382 33.55 25.6382 34.3667 25.9382 34.9C26.2382 35.4333 26.7049 35.7833 27.3382 35.95C28.0049 36.0833 28.7549 36.1833 29.5882 36.25H18.9382C19.9716 36.15 20.8216 36 21.4882 35.8C22.1882 35.5667 22.7882 35.15 23.2882 34.55C23.8216 33.9167 24.3216 33.05 24.7882 31.95C25.2549 30.8167 25.7882 29.3167 26.3882 27.45L34.8382 0.549998H35.0882L44.7382 30.95C45.0716 32.05 45.4216 32.9333 45.7882 33.6C46.1549 34.2333 46.5882 34.7333 47.0882 35.1C47.5882 35.4667 48.1716 35.7333 48.8382 35.9C49.5382 36.0333 50.3716 36.15 51.3382 36.25H37.0882C38.7549 36.0833 39.8549 35.5667 40.3882 34.7C40.9549 33.8333 40.9549 32.5 40.3882 30.7L38.6382 24.9H27.5882L26.6882 27.9ZM27.7382 24.5H38.4882L33.1882 7.05L27.7382 24.5ZM76.4953 35.65C75.8286 35.95 75.1453 36.2 74.4453 36.4C73.7786 36.6333 73.0953 36.75 72.3953 36.75C71.1286 36.75 69.9786 36.35 68.9453 35.55C67.9453 34.7167 66.8286 33.2333 65.5953 31.1L59.3453 20.3V20.25L68.1453 6.85C70.6119 3.11667 70.5453 1.25 67.9453 1.25H76.0453C75.4453 1.28333 74.8619 1.4 74.2953 1.6C73.7286 1.8 73.1453 2.11667 72.5453 2.55C71.9786 2.95 71.3786 3.5 70.7453 4.2C70.1119 4.9 69.4453 5.78333 68.7453 6.85L61.8953 17.25L70.1953 30.9C70.8619 32 71.4286 32.8667 71.8953 33.5C72.3953 34.1 72.8619 34.5667 73.2953 34.9C73.7619 35.2333 74.2453 35.45 74.7453 35.55C75.2453 35.6167 75.8286 35.65 76.4953 35.65ZM58.9453 31.4C58.9453 32.4333 59.0286 33.25 59.1953 33.85C59.3953 34.45 59.6619 34.9167 59.9953 35.25C60.3286 35.5833 60.7286 35.8167 61.1953 35.95C61.6619 36.0833 62.1619 36.1833 62.6953 36.25H51.1953C51.7619 36.1833 52.2786 36.0833 52.7453 35.95C53.2119 35.8167 53.5953 35.5833 53.8953 35.25C54.2286 34.9167 54.4786 34.45 54.6453 33.85C54.8453 33.25 54.9453 32.4333 54.9453 31.4V6.1C54.9453 5.06667 54.8453 4.25 54.6453 3.65C54.4786 3.05 54.2286 2.58333 53.8953 2.25C53.5953 1.91666 53.2119 1.68333 52.7453 1.55C52.2786 1.41667 51.7619 1.31667 51.1953 1.25H62.6953C62.1619 1.31667 61.6619 1.41667 61.1953 1.55C60.7286 1.68333 60.3286 1.91666 59.9953 2.25C59.6619 2.58333 59.3953 3.05 59.1953 3.65C59.0286 4.25 58.9453 5.06667 58.9453 6.1V31.4ZM105.107 34.75C104.14 36.55 103.123 37.7667 102.057 38.4C101.023 39.0667 99.9399 39.4 98.8066 39.4C97.8399 39.4 96.8399 39.2333 95.8066 38.9C94.7733 38.5667 93.6733 38.2 92.5066 37.8C91.3733 37.4333 90.1733 37.0833 88.9066 36.75C87.6399 36.4167 86.3066 36.25 84.9066 36.25H77.8066C78.3733 36.1833 78.8733 36.0833 79.3066 35.95C79.7733 35.8167 80.1566 35.5833 80.4566 35.25C80.7899 34.9167 81.0399 34.45 81.2066 33.85C81.4066 33.25 81.5066 32.4333 81.5066 31.4V6.1C81.5066 5.06667 81.4066 4.25 81.2066 3.65C81.0399 3.05 80.7899 2.58333 80.4566 2.25C80.1566 1.91666 79.7733 1.68333 79.3066 1.55C78.8733 1.41667 78.3733 1.31667 77.8066 1.25H89.3066C88.7399 1.31667 88.2233 1.41667 87.7566 1.55C87.2899 1.68333 86.8899 1.91666 86.5566 2.25C86.2566 2.58333 86.0066 3.05 85.8066 3.65C85.6399 4.25 85.5566 5.06667 85.5566 6.1V35.6C88.2233 35.6 90.6399 35.7667 92.8066 36.1C95.0066 36.4 97.0066 36.55 98.8066 36.55C100.007 36.55 101.107 36.4167 102.107 36.15C103.14 35.8833 104.073 35.3667 104.907 34.6L105.107 34.75ZM101.657 21.3C101.657 22.3333 101.74 23.15 101.907 23.75C102.107 24.35 102.357 24.8167 102.657 25.15C102.99 25.4833 103.39 25.7167 103.857 25.85C104.323 25.9833 104.84 26.0833 105.407 26.15H94.2066C94.7733 26.0833 95.2899 26 95.7566 25.9C96.2233 25.7667 96.6066 25.5333 96.9066 25.2C97.2399 24.8667 97.4899 24.4 97.6566 23.8C97.8566 23.2 97.9566 22.3833 97.9566 21.35V6.05C97.9566 5.01666 97.8566 4.2 97.6566 3.6C97.4899 3 97.2399 2.55 96.9066 2.25C96.6066 1.91666 96.2233 1.68333 95.7566 1.55C95.2899 1.41667 94.7733 1.31667 94.2066 1.25H105.407C104.84 1.31667 104.323 1.41667 103.857 1.55C103.39 1.68333 102.99 1.91666 102.657 2.25C102.357 2.58333 102.107 3.05 101.907 3.65C101.74 4.25 101.657 5.06667 101.657 6.1V21.3ZM115.243 31.4C115.243 32.4333 115.326 33.25 115.493 33.85C115.693 34.45 115.96 34.9167 116.293 35.25C116.626 35.5833 117.026 35.8167 117.493 35.95C117.96 36.0833 118.46 36.1833 118.993 36.25H107.493C108.06 36.1833 108.576 36.0833 109.043 35.95C109.51 35.8167 109.893 35.5833 110.193 35.25C110.526 34.9167 110.776 34.45 110.943 33.85C111.143 33.25 111.243 32.4333 111.243 31.4V6.1C111.243 5.06667 111.143 4.25 110.943 3.65C110.776 3.05 110.526 2.58333 110.193 2.25C109.893 1.91666 109.51 1.68333 109.043 1.55C108.576 1.41667 108.06 1.31667 107.493 1.25H128.743L130.193 9.75C130.06 9.35 129.86 8.7 129.593 7.8C129.36 6.9 128.926 6 128.293 5.1C127.66 4.2 126.776 3.41667 125.643 2.75C124.51 2.05 122.976 1.7 121.043 1.7H115.243V17.6H121.793C122.593 17.6 123.226 17.45 123.693 17.15C124.193 16.8167 124.56 16.4167 124.793 15.95C125.06 15.4833 125.243 14.9833 125.343 14.45C125.443 13.8833 125.526 13.3667 125.593 12.9V22.75C125.526 22.2833 125.443 21.7833 125.343 21.25C125.243 20.7167 125.06 20.2167 124.793 19.75C124.56 19.25 124.193 18.85 123.693 18.55C123.226 18.2167 122.593 18.05 121.793 18.05H115.243V31.4ZM158.45 1.25C157.35 1.41666 156.45 2.16666 155.75 3.5C155.05 4.83333 154.7 6.53333 154.7 8.6V36.9H154.25L136.45 5.35V28.9C136.45 30.9667 136.783 32.6667 137.45 34C138.15 35.3333 139.05 36.0833 140.15 36.25H132.25C133.383 36.0833 134.283 35.3333 134.95 34C135.65 32.6667 136 30.9667 136 28.9V8C136 5.93333 135.683 4.4 135.05 3.4C134.45 2.36667 133.517 1.65 132.25 1.25H139.05L154.3 28.05V8.6C154.3 6.53333 153.95 4.83333 153.25 3.5C152.55 2.16666 151.65 1.41666 150.55 1.25H158.45ZM197.247 18.75C197.247 21.7833 196.713 24.45 195.647 26.75C194.613 29.0167 193.23 30.9167 191.497 32.45C189.797 33.95 187.847 35.0833 185.647 35.85C183.48 36.6167 181.263 37 178.997 37C176.697 37 174.447 36.6167 172.247 35.85C170.08 35.0833 168.147 33.95 166.447 32.45C164.747 30.9167 163.363 29.0167 162.297 26.75C161.263 24.45 160.747 21.7833 160.747 18.75C160.747 15.6833 161.263 13.0167 162.297 10.75C163.363 8.48333 164.747 6.58333 166.447 5.05C168.18 3.51667 170.13 2.38333 172.297 1.65C174.497 0.883332 176.73 0.499998 178.997 0.499998C181.297 0.499998 183.53 0.883332 185.697 1.65C187.897 2.38333 189.847 3.51667 191.547 5.05C193.247 6.58333 194.613 8.48333 195.647 10.75C196.713 13.0167 197.247 15.6833 197.247 18.75ZM164.747 15.55C164.747 19.05 165.213 22.1 166.147 24.7C167.08 27.2667 168.28 29.4167 169.747 31.15C171.247 32.8833 172.93 34.1833 174.797 35.05C176.697 35.8833 178.597 36.3 180.497 36.3C182.13 36.3 183.713 35.9833 185.247 35.35C186.78 34.7167 188.13 33.7667 189.297 32.5C190.497 31.2333 191.447 29.6667 192.147 27.8C192.88 25.9333 193.247 23.75 193.247 21.25C193.28 17.95 192.813 15.05 191.847 12.55C190.913 10.0167 189.663 7.91667 188.097 6.25C186.563 4.58333 184.83 3.33333 182.897 2.5C180.963 1.63333 179.03 1.2 177.097 1.2C175.497 1.2 173.947 1.5 172.447 2.1C170.947 2.66667 169.63 3.55 168.497 4.75C167.363 5.95 166.447 7.45 165.747 9.25C165.08 11.05 164.747 13.15 164.747 15.55ZM252.905 17.6C253.905 20.1333 254.255 22.5833 253.955 24.95C253.689 27.2833 252.939 29.35 251.705 31.15C250.472 32.9167 248.839 34.3333 246.805 35.4C244.772 36.4667 242.505 37 240.005 37C237.272 37 235.055 36.4333 233.355 35.3C231.655 34.1333 230.305 32.7333 229.305 31.1C228.339 29.4667 227.622 27.7833 227.155 26.05C226.722 24.2833 226.389 22.8 226.155 21.6L223.555 8.6L215.405 36.85H215.005L206.805 9.2L202.755 27.85C202.322 29.85 202.122 31.4 202.155 32.5C202.189 33.6 202.389 34.4167 202.755 34.95C203.122 35.4833 203.639 35.8167 204.305 35.95C205.005 36.0833 205.789 36.1833 206.655 36.25H195.355C196.355 36.15 197.205 36 197.905 35.8C198.639 35.6 199.255 35.2 199.755 34.6C200.289 34 200.755 33.15 201.155 32.05C201.589 30.9167 202.022 29.4 202.455 27.5L208.405 0.549998H208.655L217.105 29.65L225.505 0.549998H225.755C225.955 1.11667 226.172 1.95 226.405 3.05C226.672 4.11667 226.939 5.3 227.205 6.6C227.505 7.9 227.789 9.23333 228.055 10.6C228.355 11.9667 228.622 13.2333 228.855 14.4C229.089 15.5667 229.289 16.5833 229.455 17.45C229.622 18.2833 229.739 18.8 229.805 19C230.205 21.0333 230.689 23.05 231.255 25.05C231.855 27.0167 232.639 28.7833 233.605 30.35C234.605 31.9167 235.872 33.1833 237.405 34.15C238.939 35.1167 240.855 35.6 243.155 35.6C244.655 35.6 246.022 35.2833 247.255 34.65C248.522 34.0167 249.539 33.1667 250.305 32.1C251.072 31.0333 251.555 29.8167 251.755 28.45C251.955 27.05 251.772 25.5833 251.205 24.05L248.755 17.65H239.655C239.155 19.05 238.839 20.1833 238.705 21.05C238.572 21.8833 238.572 22.55 238.705 23.05C238.872 23.55 239.155 23.9167 239.555 24.15C239.989 24.3833 240.505 24.55 241.105 24.65H233.855C234.455 24.4833 234.972 24.2833 235.405 24.05C235.839 23.7833 236.272 23.35 236.705 22.75C237.139 22.1167 237.589 21.25 238.055 20.15C238.555 19.05 239.172 17.6 239.905 15.8L245.955 0.499998H246.205L252.905 17.6ZM240.205 16.2C240.139 16.3667 240.072 16.55 240.005 16.75C239.939 16.9167 239.872 17.0833 239.805 17.25H248.605L244.305 5.85L240.205 16.2ZM285.519 1.25C284.486 1.35 283.619 1.51666 282.919 1.75C282.252 1.95 281.652 2.36667 281.119 3C280.619 3.6 280.136 4.46667 279.669 5.6C279.202 6.7 278.669 8.18333 278.069 10.05L269.619 36.95H269.369L259.669 6.4C259.336 5.33333 258.986 4.5 258.619 3.9C258.252 3.26667 257.819 2.76667 257.319 2.4C256.819 2.03333 256.236 1.78333 255.569 1.65C254.902 1.48333 254.086 1.35 253.119 1.25H267.369C265.702 1.41666 264.602 1.93333 264.069 2.8C263.536 3.63333 263.536 4.95 264.069 6.75L271.269 30.45L277.769 9.6C278.369 7.66667 278.719 6.16667 278.819 5.1C278.919 4 278.819 3.18333 278.519 2.65C278.219 2.08333 277.752 1.73333 277.119 1.6C276.486 1.43333 275.736 1.31667 274.869 1.25H285.519ZM292.587 31.4C292.587 32.4333 292.67 33.25 292.837 33.85C293.037 34.45 293.303 34.9167 293.637 35.25C293.97 35.5833 294.37 35.8167 294.837 35.95C295.303 36.0833 295.803 36.1833 296.337 36.25H284.837C285.403 36.1833 285.92 36.0833 286.387 35.95C286.853 35.8167 287.237 35.5833 287.537 35.25C287.87 34.9167 288.12 34.45 288.287 33.85C288.487 33.25 288.587 32.4333 288.587 31.4V6.1C288.587 5.06667 288.487 4.25 288.287 3.65C288.12 3.05 287.87 2.58333 287.537 2.25C287.237 1.91666 286.853 1.68333 286.387 1.55C285.92 1.41667 285.403 1.31667 284.837 1.25H296.337C295.803 1.31667 295.303 1.41667 294.837 1.55C294.37 1.68333 293.97 1.91666 293.637 2.25C293.303 2.58333 293.037 3.05 292.837 3.65C292.67 4.25 292.587 5.06667 292.587 6.1V31.4ZM307.137 31.4C307.137 32.4333 307.221 33.25 307.387 33.85C307.587 34.45 307.854 34.9167 308.187 35.25C308.521 35.5833 308.921 35.8167 309.387 35.95C309.854 36.0833 310.354 36.1833 310.887 36.25H299.387C299.954 36.1833 300.471 36.0833 300.937 35.95C301.404 35.8167 301.787 35.5833 302.087 35.25C302.421 34.9167 302.671 34.45 302.837 33.85C303.037 33.25 303.137 32.4333 303.137 31.4V6.1C303.137 5.06667 303.037 4.25 302.837 3.65C302.671 3.05 302.421 2.58333 302.087 2.25C301.787 1.91666 301.404 1.68333 300.937 1.55C300.471 1.41667 299.954 1.31667 299.387 1.25H310.037C312.837 1.25 315.154 1.85 316.987 3.05C318.854 4.25 320.237 5.75 321.137 7.55C322.071 9.35 322.537 11.3 322.537 13.4C322.537 15.5 322.071 17.45 321.137 19.25C320.204 21.05 318.804 22.55 316.937 23.75C315.104 24.95 312.804 25.55 310.037 25.55V25.3C311.904 25.3 313.454 24.7167 314.687 23.55C315.954 22.3833 316.904 20.9333 317.537 19.2C318.171 17.4333 318.487 15.5333 318.487 13.5C318.487 11.4667 318.171 9.58333 317.537 7.85C316.937 6.08333 316.004 4.61666 314.737 3.45C313.471 2.28333 311.904 1.7 310.037 1.7H309.937C309.437 1.7 309.004 1.75 308.637 1.85C308.271 1.91666 307.971 2.1 307.737 2.4C307.537 2.7 307.387 3.13333 307.287 3.7C307.187 4.23333 307.137 4.96666 307.137 5.9V31.4Z"/>
</mask>
<path d="M13.7429 31.4C13.7429 32.4333 13.8263 33.25 13.9929 33.85C14.1929 34.45 14.4429 34.9167 14.7429 35.25C15.0763 35.5833 15.4763 35.8167 15.9429 35.95C16.4096 36.0833 16.9096 36.1833 17.4429 36.25H5.94292C6.50959 36.1833 7.02625 36.0833 7.49292 35.95C7.95959 35.8167 8.34292 35.5833 8.64292 35.25C8.97625 34.9167 9.22625 34.45 9.39292 33.85C9.59292 33.25 9.69292 32.4333 9.69292 31.4V1.7H9.64292C7.70959 1.7 6.17625 2.05 5.04292 2.75C3.90959 3.41667 3.02625 4.2 2.39292 5.1C1.75959 6 1.30959 6.9 1.04292 7.8C0.809587 8.7 0.626253 9.35 0.49292 9.75L1.94292 1.25H21.4429L22.9429 9.75C22.8096 9.35 22.6096 8.7 22.3429 7.8C22.0763 6.9 21.6263 6 20.9929 5.1C20.3929 4.2 19.5096 3.41667 18.3429 2.75C17.2096 2.05 15.6929 1.7 13.7929 1.7H13.7429V31.4ZM26.6882 27.9C26.0882 29.8333 25.7382 31.35 25.6382 32.45C25.5382 33.55 25.6382 34.3667 25.9382 34.9C26.2382 35.4333 26.7049 35.7833 27.3382 35.95C28.0049 36.0833 28.7549 36.1833 29.5882 36.25H18.9382C19.9716 36.15 20.8216 36 21.4882 35.8C22.1882 35.5667 22.7882 35.15 23.2882 34.55C23.8216 33.9167 24.3216 33.05 24.7882 31.95C25.2549 30.8167 25.7882 29.3167 26.3882 27.45L34.8382 0.549998H35.0882L44.7382 30.95C45.0716 32.05 45.4216 32.9333 45.7882 33.6C46.1549 34.2333 46.5882 34.7333 47.0882 35.1C47.5882 35.4667 48.1716 35.7333 48.8382 35.9C49.5382 36.0333 50.3716 36.15 51.3382 36.25H37.0882C38.7549 36.0833 39.8549 35.5667 40.3882 34.7C40.9549 33.8333 40.9549 32.5 40.3882 30.7L38.6382 24.9H27.5882L26.6882 27.9ZM27.7382 24.5H38.4882L33.1882 7.05L27.7382 24.5ZM76.4953 35.65C75.8286 35.95 75.1453 36.2 74.4453 36.4C73.7786 36.6333 73.0953 36.75 72.3953 36.75C71.1286 36.75 69.9786 36.35 68.9453 35.55C67.9453 34.7167 66.8286 33.2333 65.5953 31.1L59.3453 20.3V20.25L68.1453 6.85C70.6119 3.11667 70.5453 1.25 67.9453 1.25H76.0453C75.4453 1.28333 74.8619 1.4 74.2953 1.6C73.7286 1.8 73.1453 2.11667 72.5453 2.55C71.9786 2.95 71.3786 3.5 70.7453 4.2C70.1119 4.9 69.4453 5.78333 68.7453 6.85L61.8953 17.25L70.1953 30.9C70.8619 32 71.4286 32.8667 71.8953 33.5C72.3953 34.1 72.8619 34.5667 73.2953 34.9C73.7619 35.2333 74.2453 35.45 74.7453 35.55C75.2453 35.6167 75.8286 35.65 76.4953 35.65ZM58.9453 31.4C58.9453 32.4333 59.0286 33.25 59.1953 33.85C59.3953 34.45 59.6619 34.9167 59.9953 35.25C60.3286 35.5833 60.7286 35.8167 61.1953 35.95C61.6619 36.0833 62.1619 36.1833 62.6953 36.25H51.1953C51.7619 36.1833 52.2786 36.0833 52.7453 35.95C53.2119 35.8167 53.5953 35.5833 53.8953 35.25C54.2286 34.9167 54.4786 34.45 54.6453 33.85C54.8453 33.25 54.9453 32.4333 54.9453 31.4V6.1C54.9453 5.06667 54.8453 4.25 54.6453 3.65C54.4786 3.05 54.2286 2.58333 53.8953 2.25C53.5953 1.91666 53.2119 1.68333 52.7453 1.55C52.2786 1.41667 51.7619 1.31667 51.1953 1.25H62.6953C62.1619 1.31667 61.6619 1.41667 61.1953 1.55C60.7286 1.68333 60.3286 1.91666 59.9953 2.25C59.6619 2.58333 59.3953 3.05 59.1953 3.65C59.0286 4.25 58.9453 5.06667 58.9453 6.1V31.4ZM105.107 34.75C104.14 36.55 103.123 37.7667 102.057 38.4C101.023 39.0667 99.9399 39.4 98.8066 39.4C97.8399 39.4 96.8399 39.2333 95.8066 38.9C94.7733 38.5667 93.6733 38.2 92.5066 37.8C91.3733 37.4333 90.1733 37.0833 88.9066 36.75C87.6399 36.4167 86.3066 36.25 84.9066 36.25H77.8066C78.3733 36.1833 78.8733 36.0833 79.3066 35.95C79.7733 35.8167 80.1566 35.5833 80.4566 35.25C80.7899 34.9167 81.0399 34.45 81.2066 33.85C81.4066 33.25 81.5066 32.4333 81.5066 31.4V6.1C81.5066 5.06667 81.4066 4.25 81.2066 3.65C81.0399 3.05 80.7899 2.58333 80.4566 2.25C80.1566 1.91666 79.7733 1.68333 79.3066 1.55C78.8733 1.41667 78.3733 1.31667 77.8066 1.25H89.3066C88.7399 1.31667 88.2233 1.41667 87.7566 1.55C87.2899 1.68333 86.8899 1.91666 86.5566 2.25C86.2566 2.58333 86.0066 3.05 85.8066 3.65C85.6399 4.25 85.5566 5.06667 85.5566 6.1V35.6C88.2233 35.6 90.6399 35.7667 92.8066 36.1C95.0066 36.4 97.0066 36.55 98.8066 36.55C100.007 36.55 101.107 36.4167 102.107 36.15C103.14 35.8833 104.073 35.3667 104.907 34.6L105.107 34.75ZM101.657 21.3C101.657 22.3333 101.74 23.15 101.907 23.75C102.107 24.35 102.357 24.8167 102.657 25.15C102.99 25.4833 103.39 25.7167 103.857 25.85C104.323 25.9833 104.84 26.0833 105.407 26.15H94.2066C94.7733 26.0833 95.2899 26 95.7566 25.9C96.2233 25.7667 96.6066 25.5333 96.9066 25.2C97.2399 24.8667 97.4899 24.4 97.6566 23.8C97.8566 23.2 97.9566 22.3833 97.9566 21.35V6.05C97.9566 5.01666 97.8566 4.2 97.6566 3.6C97.4899 3 97.2399 2.55 96.9066 2.25C96.6066 1.91666 96.2233 1.68333 95.7566 1.55C95.2899 1.41667 94.7733 1.31667 94.2066 1.25H105.407C104.84 1.31667 104.323 1.41667 103.857 1.55C103.39 1.68333 102.99 1.91666 102.657 2.25C102.357 2.58333 102.107 3.05 101.907 3.65C101.74 4.25 101.657 5.06667 101.657 6.1V21.3ZM115.243 31.4C115.243 32.4333 115.326 33.25 115.493 33.85C115.693 34.45 115.96 34.9167 116.293 35.25C116.626 35.5833 117.026 35.8167 117.493 35.95C117.96 36.0833 118.46 36.1833 118.993 36.25H107.493C108.06 36.1833 108.576 36.0833 109.043 35.95C109.51 35.8167 109.893 35.5833 110.193 35.25C110.526 34.9167 110.776 34.45 110.943 33.85C111.143 33.25 111.243 32.4333 111.243 31.4V6.1C111.243 5.06667 111.143 4.25 110.943 3.65C110.776 3.05 110.526 2.58333 110.193 2.25C109.893 1.91666 109.51 1.68333 109.043 1.55C108.576 1.41667 108.06 1.31667 107.493 1.25H128.743L130.193 9.75C130.06 9.35 129.86 8.7 129.593 7.8C129.36 6.9 128.926 6 128.293 5.1C127.66 4.2 126.776 3.41667 125.643 2.75C124.51 2.05 122.976 1.7 121.043 1.7H115.243V17.6H121.793C122.593 17.6 123.226 17.45 123.693 17.15C124.193 16.8167 124.56 16.4167 124.793 15.95C125.06 15.4833 125.243 14.9833 125.343 14.45C125.443 13.8833 125.526 13.3667 125.593 12.9V22.75C125.526 22.2833 125.443 21.7833 125.343 21.25C125.243 20.7167 125.06 20.2167 124.793 19.75C124.56 19.25 124.193 18.85 123.693 18.55C123.226 18.2167 122.593 18.05 121.793 18.05H115.243V31.4ZM158.45 1.25C157.35 1.41666 156.45 2.16666 155.75 3.5C155.05 4.83333 154.7 6.53333 154.7 8.6V36.9H154.25L136.45 5.35V28.9C136.45 30.9667 136.783 32.6667 137.45 34C138.15 35.3333 139.05 36.0833 140.15 36.25H132.25C133.383 36.0833 134.283 35.3333 134.95 34C135.65 32.6667 136 30.9667 136 28.9V8C136 5.93333 135.683 4.4 135.05 3.4C134.45 2.36667 133.517 1.65 132.25 1.25H139.05L154.3 28.05V8.6C154.3 6.53333 153.95 4.83333 153.25 3.5C152.55 2.16666 151.65 1.41666 150.55 1.25H158.45ZM197.247 18.75C197.247 21.7833 196.713 24.45 195.647 26.75C194.613 29.0167 193.23 30.9167 191.497 32.45C189.797 33.95 187.847 35.0833 185.647 35.85C183.48 36.6167 181.263 37 178.997 37C176.697 37 174.447 36.6167 172.247 35.85C170.08 35.0833 168.147 33.95 166.447 32.45C164.747 30.9167 163.363 29.0167 162.297 26.75C161.263 24.45 160.747 21.7833 160.747 18.75C160.747 15.6833 161.263 13.0167 162.297 10.75C163.363 8.48333 164.747 6.58333 166.447 5.05C168.18 3.51667 170.13 2.38333 172.297 1.65C174.497 0.883332 176.73 0.499998 178.997 0.499998C181.297 0.499998 183.53 0.883332 185.697 1.65C187.897 2.38333 189.847 3.51667 191.547 5.05C193.247 6.58333 194.613 8.48333 195.647 10.75C196.713 13.0167 197.247 15.6833 197.247 18.75ZM164.747 15.55C164.747 19.05 165.213 22.1 166.147 24.7C167.08 27.2667 168.28 29.4167 169.747 31.15C171.247 32.8833 172.93 34.1833 174.797 35.05C176.697 35.8833 178.597 36.3 180.497 36.3C182.13 36.3 183.713 35.9833 185.247 35.35C186.78 34.7167 188.13 33.7667 189.297 32.5C190.497 31.2333 191.447 29.6667 192.147 27.8C192.88 25.9333 193.247 23.75 193.247 21.25C193.28 17.95 192.813 15.05 191.847 12.55C190.913 10.0167 189.663 7.91667 188.097 6.25C186.563 4.58333 184.83 3.33333 182.897 2.5C180.963 1.63333 179.03 1.2 177.097 1.2C175.497 1.2 173.947 1.5 172.447 2.1C170.947 2.66667 169.63 3.55 168.497 4.75C167.363 5.95 166.447 7.45 165.747 9.25C165.08 11.05 164.747 13.15 164.747 15.55ZM252.905 17.6C253.905 20.1333 254.255 22.5833 253.955 24.95C253.689 27.2833 252.939 29.35 251.705 31.15C250.472 32.9167 248.839 34.3333 246.805 35.4C244.772 36.4667 242.505 37 240.005 37C237.272 37 235.055 36.4333 233.355 35.3C231.655 34.1333 230.305 32.7333 229.305 31.1C228.339 29.4667 227.622 27.7833 227.155 26.05C226.722 24.2833 226.389 22.8 226.155 21.6L223.555 8.6L215.405 36.85H215.005L206.805 9.2L202.755 27.85C202.322 29.85 202.122 31.4 202.155 32.5C202.189 33.6 202.389 34.4167 202.755 34.95C203.122 35.4833 203.639 35.8167 204.305 35.95C205.005 36.0833 205.789 36.1833 206.655 36.25H195.355C196.355 36.15 197.205 36 197.905 35.8C198.639 35.6 199.255 35.2 199.755 34.6C200.289 34 200.755 33.15 201.155 32.05C201.589 30.9167 202.022 29.4 202.455 27.5L208.405 0.549998H208.655L217.105 29.65L225.505 0.549998H225.755C225.955 1.11667 226.172 1.95 226.405 3.05C226.672 4.11667 226.939 5.3 227.205 6.6C227.505 7.9 227.789 9.23333 228.055 10.6C228.355 11.9667 228.622 13.2333 228.855 14.4C229.089 15.5667 229.289 16.5833 229.455 17.45C229.622 18.2833 229.739 18.8 229.805 19C230.205 21.0333 230.689 23.05 231.255 25.05C231.855 27.0167 232.639 28.7833 233.605 30.35C234.605 31.9167 235.872 33.1833 237.405 34.15C238.939 35.1167 240.855 35.6 243.155 35.6C244.655 35.6 246.022 35.2833 247.255 34.65C248.522 34.0167 249.539 33.1667 250.305 32.1C251.072 31.0333 251.555 29.8167 251.755 28.45C251.955 27.05 251.772 25.5833 251.205 24.05L248.755 17.65H239.655C239.155 19.05 238.839 20.1833 238.705 21.05C238.572 21.8833 238.572 22.55 238.705 23.05C238.872 23.55 239.155 23.9167 239.555 24.15C239.989 24.3833 240.505 24.55 241.105 24.65H233.855C234.455 24.4833 234.972 24.2833 235.405 24.05C235.839 23.7833 236.272 23.35 236.705 22.75C237.139 22.1167 237.589 21.25 238.055 20.15C238.555 19.05 239.172 17.6 239.905 15.8L245.955 0.499998H246.205L252.905 17.6ZM240.205 16.2C240.139 16.3667 240.072 16.55 240.005 16.75C239.939 16.9167 239.872 17.0833 239.805 17.25H248.605L244.305 5.85L240.205 16.2ZM285.519 1.25C284.486 1.35 283.619 1.51666 282.919 1.75C282.252 1.95 281.652 2.36667 281.119 3C280.619 3.6 280.136 4.46667 279.669 5.6C279.202 6.7 278.669 8.18333 278.069 10.05L269.619 36.95H269.369L259.669 6.4C259.336 5.33333 258.986 4.5 258.619 3.9C258.252 3.26667 257.819 2.76667 257.319 2.4C256.819 2.03333 256.236 1.78333 255.569 1.65C254.902 1.48333 254.086 1.35 253.119 1.25H267.369C265.702 1.41666 264.602 1.93333 264.069 2.8C263.536 3.63333 263.536 4.95 264.069 6.75L271.269 30.45L277.769 9.6C278.369 7.66667 278.719 6.16667 278.819 5.1C278.919 4 278.819 3.18333 278.519 2.65C278.219 2.08333 277.752 1.73333 277.119 1.6C276.486 1.43333 275.736 1.31667 274.869 1.25H285.519ZM292.587 31.4C292.587 32.4333 292.67 33.25 292.837 33.85C293.037 34.45 293.303 34.9167 293.637 35.25C293.97 35.5833 294.37 35.8167 294.837 35.95C295.303 36.0833 295.803 36.1833 296.337 36.25H284.837C285.403 36.1833 285.92 36.0833 286.387 35.95C286.853 35.8167 287.237 35.5833 287.537 35.25C287.87 34.9167 288.12 34.45 288.287 33.85C288.487 33.25 288.587 32.4333 288.587 31.4V6.1C288.587 5.06667 288.487 4.25 288.287 3.65C288.12 3.05 287.87 2.58333 287.537 2.25C287.237 1.91666 286.853 1.68333 286.387 1.55C285.92 1.41667 285.403 1.31667 284.837 1.25H296.337C295.803 1.31667 295.303 1.41667 294.837 1.55C294.37 1.68333 293.97 1.91666 293.637 2.25C293.303 2.58333 293.037 3.05 292.837 3.65C292.67 4.25 292.587 5.06667 292.587 6.1V31.4ZM307.137 31.4C307.137 32.4333 307.221 33.25 307.387 33.85C307.587 34.45 307.854 34.9167 308.187 35.25C308.521 35.5833 308.921 35.8167 309.387 35.95C309.854 36.0833 310.354 36.1833 310.887 36.25H299.387C299.954 36.1833 300.471 36.0833 300.937 35.95C301.404 35.8167 301.787 35.5833 302.087 35.25C302.421 34.9167 302.671 34.45 302.837 33.85C303.037 33.25 303.137 32.4333 303.137 31.4V6.1C303.137 5.06667 303.037 4.25 302.837 3.65C302.671 3.05 302.421 2.58333 302.087 2.25C301.787 1.91666 301.404 1.68333 300.937 1.55C300.471 1.41667 299.954 1.31667 299.387 1.25H310.037C312.837 1.25 315.154 1.85 316.987 3.05C318.854 4.25 320.237 5.75 321.137 7.55C322.071 9.35 322.537 11.3 322.537 13.4C322.537 15.5 322.071 17.45 321.137 19.25C320.204 21.05 318.804 22.55 316.937 23.75C315.104 24.95 312.804 25.55 310.037 25.55V25.3C311.904 25.3 313.454 24.7167 314.687 23.55C315.954 22.3833 316.904 20.9333 317.537 19.2C318.171 17.4333 318.487 15.5333 318.487 13.5C318.487 11.4667 318.171 9.58333 317.537 7.85C316.937 6.08333 316.004 4.61666 314.737 3.45C313.471 2.28333 311.904 1.7 310.037 1.7H309.937C309.437 1.7 309.004 1.75 308.637 1.85C308.271 1.91666 307.971 2.1 307.737 2.4C307.537 2.7 307.387 3.13333 307.287 3.7C307.187 4.23333 307.137 4.96666 307.137 5.9V31.4Z" fill="#482817"/>
<path d="M13.9929 33.85L13.5112 33.9838L13.5146 33.9961L13.5186 34.0081L13.9929 33.85ZM14.7429 35.25L14.3713 35.5845L14.3801 35.5943L14.3894 35.6036L14.7429 35.25ZM15.9429 35.95L15.8056 36.4308L15.9429 35.95ZM17.4429 36.25V36.75L17.5049 35.7539L17.4429 36.25ZM5.94292 36.25L5.8845 35.7534L5.94292 36.75V36.25ZM7.49292 35.95L7.35556 35.4692L7.49292 35.95ZM8.64292 35.25L8.28937 34.8964L8.28007 34.9057L8.27127 34.9155L8.64292 35.25ZM9.39292 33.85L8.91858 33.6919L8.91456 33.7039L8.91116 33.7162L9.39292 33.85ZM9.69292 1.7H10.1929V1.2H9.69292V1.7ZM5.04292 2.75L5.29649 3.18107L5.30567 3.1754L5.04292 2.75ZM2.39292 5.1L1.98402 4.81225L2.39292 5.1ZM1.04292 7.8L0.563521 7.65796L0.561079 7.6662L0.558922 7.67452L1.04292 7.8ZM0.49292 9.75L4.00245e-05 9.66592L0.967262 9.90811L0.49292 9.75ZM1.94292 1.25V0.749998H1.52099L1.45004 1.16592L1.94292 1.25ZM21.4429 1.25L21.9353 1.16311L21.8624 0.749998H21.4429V1.25ZM22.9429 9.75L22.4686 9.90811L23.4353 9.66311L22.9429 9.75ZM22.3429 7.8L21.8635 7.94204L22.3429 7.8ZM20.9929 5.1L20.5768 5.37744L20.584 5.38775L20.9929 5.1ZM18.3429 2.75L18.0802 3.1754L18.0874 3.17988L18.0949 3.18412L18.3429 2.75ZM13.7429 1.7V1.2H13.2429V1.7H13.7429ZM13.7429 31.4H13.2429C13.2429 32.453 13.3271 33.3211 13.5112 33.9838L13.9929 33.85L14.4747 33.7162C14.3254 33.1789 14.2429 32.4137 14.2429 31.4H13.7429ZM13.9929 33.85L13.5186 34.0081C13.732 34.6485 14.0105 35.1836 14.3713 35.5845L14.7429 35.25L15.1146 34.9155C14.8753 34.6497 14.6538 34.2515 14.4673 33.6919L13.9929 33.85ZM14.7429 35.25L14.3894 35.6036C14.7846 35.9988 15.2597 36.2748 15.8056 36.4308L15.9429 35.95L16.0803 35.4692C15.6928 35.3585 15.3679 35.1679 15.0965 34.8964L14.7429 35.25ZM15.9429 35.95L15.8056 36.4308C16.2994 36.5718 16.8248 36.6766 17.3809 36.7461L17.4429 36.25L17.5049 35.7539C16.9944 35.69 16.5198 35.5948 16.0803 35.4692L15.9429 35.95ZM17.4429 36.25V35.75H5.94292V36.25V36.75H17.4429V36.25ZM5.94292 36.25L6.00134 36.7466C6.5902 36.6773 7.13374 36.5726 7.63028 36.4308L7.49292 35.95L7.35556 35.4692C6.91876 35.594 6.42898 35.6894 5.8845 35.7534L5.94292 36.25ZM7.49292 35.95L7.63028 36.4308C8.17951 36.2738 8.64659 35.9933 9.01457 35.5845L8.64292 35.25L8.27127 34.9155C8.03925 35.1733 7.73967 35.3595 7.35556 35.4692L7.49292 35.95ZM8.64292 35.25L8.99647 35.6036C9.40727 35.1928 9.69211 34.6411 9.87468 33.9838L9.39292 33.85L8.91116 33.7162C8.7604 34.2589 8.54524 34.6406 8.28937 34.8964L8.64292 35.25ZM9.39292 33.85L9.86726 34.0081C10.0916 33.3351 10.1929 32.4576 10.1929 31.4H9.69292H9.19292C9.19292 32.4091 9.09425 33.1649 8.91858 33.6919L9.39292 33.85ZM9.69292 31.4H10.1929V1.7H9.69292H9.19292V31.4H9.69292ZM9.69292 1.7V1.2H9.64292V1.7V2.2H9.69292V1.7ZM9.64292 1.7V1.2C7.65629 1.2 6.02042 1.55857 4.78017 2.3246L5.04292 2.75L5.30567 3.1754C6.33209 2.54143 7.76289 2.2 9.64292 2.2V1.7ZM5.04292 2.75L4.78941 2.31903C3.60645 3.01489 2.66555 3.84376 1.98402 4.81225L2.39292 5.1L2.80182 5.38774C3.38696 4.55624 4.21273 3.81844 5.29643 3.18097L5.04292 2.75ZM2.39292 5.1L1.98402 4.81225C1.32469 5.74919 0.848016 6.69779 0.563521 7.65796L1.04292 7.8L1.52232 7.94204C1.77116 7.10221 2.19448 6.25081 2.80182 5.38774L2.39292 5.1ZM1.04292 7.8L0.558922 7.67452C0.32589 8.57335 0.146131 9.20923 0.0185782 9.59188L0.49292 9.75L0.967262 9.90811C1.10638 9.49077 1.29328 8.82664 1.52692 7.92548L1.04292 7.8ZM0.49292 9.75L0.9858 9.83408L2.4358 1.33408L1.94292 1.25L1.45004 1.16592L4.00245e-05 9.66592L0.49292 9.75ZM1.94292 1.25V1.75H21.4429V1.25V0.749998H1.94292V1.25ZM21.4429 1.25L20.9505 1.33689L22.4505 9.83689L22.9429 9.75L23.4353 9.66311L21.9353 1.16311L21.4429 1.25ZM22.9429 9.75L23.4173 9.59188C23.2868 9.20049 23.0888 8.55744 22.8223 7.65796L22.3429 7.8L21.8635 7.94204C22.1303 8.84255 22.3324 9.4995 22.4686 9.90811L22.9429 9.75ZM22.3429 7.8L22.8223 7.65796C22.5378 6.69779 22.0612 5.74919 21.4018 4.81225L20.9929 5.1L20.584 5.38775C21.1914 6.25081 21.6147 7.10221 21.8635 7.94204L22.3429 7.8ZM20.9929 5.1L21.4089 4.82265C20.7567 3.84432 19.8091 3.01192 18.591 2.31588L18.3429 2.75L18.0949 3.18412C19.2101 3.82141 20.0291 4.55568 20.5769 5.37735L20.9929 5.1ZM18.3429 2.75L18.6057 2.3246C17.3666 1.55928 15.7482 1.2 13.7929 1.2V1.7V2.2C15.6377 2.2 17.0526 2.54072 18.0802 3.1754L18.3429 2.75ZM13.7929 1.7V1.2H13.7429V1.7V2.2H13.7929V1.7ZM13.7429 1.7H13.2429V31.4H13.7429H14.2429V1.7H13.7429ZM26.6882 27.9L27.1658 28.0482L27.1671 28.0437L26.6882 27.9ZM25.6382 32.45L26.1362 32.4953L25.6382 32.45ZM25.9382 34.9L25.5024 35.1451L25.9382 34.9ZM27.3382 35.95L27.211 36.4335L27.2255 36.4374L27.2402 36.4403L27.3382 35.95ZM29.5882 36.25V36.75L29.6281 35.7516L29.5882 36.25ZM18.9382 36.25L18.8901 35.7523L18.9382 36.75V36.25ZM21.4882 35.8L21.6319 36.2789L21.6392 36.2767L21.6463 36.2743L21.4882 35.8ZM23.2882 34.55L22.9058 34.2279L22.9041 34.2299L23.2882 34.55ZM24.7882 31.95L25.2486 32.1453L25.2506 32.1404L24.7882 31.95ZM26.3882 27.45L26.8643 27.603L26.8653 27.5998L26.3882 27.45ZM34.8382 0.549997V0.0499973H34.4712L34.3612 0.400153L34.8382 0.549997ZM35.0882 0.549997L35.5648 0.39872L35.4541 0.0499973H35.0882V0.549997ZM44.7382 30.95L45.2168 30.805L45.2148 30.7987L44.7382 30.95ZM45.7882 33.6L45.35 33.841L45.3555 33.8505L45.7882 33.6ZM47.0882 35.1L47.3839 34.6968L47.0882 35.1ZM48.8382 35.9L48.717 36.3851L48.7307 36.3885L48.7447 36.3912L48.8382 35.9ZM51.3382 36.25V36.75L51.3897 35.7527L51.3382 36.25ZM37.0882 36.25L37.0385 35.7525L37.0882 36.75V36.25ZM40.3882 34.7L39.9696 34.4263L39.9624 34.438L40.3882 34.7ZM40.3882 30.7L39.9095 30.8444L39.9113 30.8501L40.3882 30.7ZM38.6382 24.9L39.1169 24.7556L39.0096 24.4H38.6382V24.9ZM27.5882 24.9V24.4H27.2162L27.1093 24.7563L27.5882 24.9ZM27.7382 24.5L27.261 24.3509L27.0583 25H27.7382V24.5ZM38.4882 24.5V25H39.1627L38.9667 24.3547L38.4882 24.5ZM33.1882 7.05L33.6667 6.90469L33.1949 5.35147L32.711 6.90094L33.1882 7.05ZM26.6882 27.9L26.2107 27.7518C25.6074 29.6959 25.2451 31.2521 25.1403 32.4047L25.6382 32.45L26.1362 32.4953C26.2314 31.4479 26.5691 29.9708 27.1658 28.0482L26.6882 27.9ZM25.6382 32.45L25.1403 32.4047C25.0375 33.5349 25.1267 34.4772 25.5024 35.1451L25.9382 34.9L26.374 34.6549C26.1497 34.2562 26.0389 33.5651 26.1362 32.4953L25.6382 32.45ZM25.9382 34.9L25.5024 35.1451C25.8738 35.8053 26.457 36.2351 27.211 36.4335L27.3382 35.95L27.4655 35.4665C26.9528 35.3315 26.6027 35.0613 26.374 34.6549L25.9382 34.9ZM27.3382 35.95L27.2402 36.4403C27.9298 36.5782 28.6997 36.6805 29.5484 36.7484L29.5882 36.25L29.6281 35.7516C28.8101 35.6861 28.08 35.5884 27.4363 35.4597L27.3382 35.95ZM29.5882 36.25V35.75H18.9382V36.25V36.75H29.5882V36.25ZM18.9382 36.25L18.9864 36.7477C20.038 36.6459 20.9229 36.4916 21.6319 36.2789L21.4882 35.8L21.3446 35.3211C20.7202 35.5084 19.9052 35.6541 18.8901 35.7523L18.9382 36.25ZM21.4882 35.8L21.6463 36.2743C22.4398 36.0099 23.1165 35.5372 23.6723 34.8701L23.2882 34.55L22.9041 34.2299C22.46 34.7628 21.9367 35.1235 21.3301 35.3257L21.4882 35.8ZM23.2882 34.55L23.6707 34.8721C24.2469 34.1878 24.7702 33.2727 25.2485 32.1453L24.7882 31.95L24.3279 31.7547C23.8729 32.8273 23.3962 33.6455 22.9058 34.2279L23.2882 34.55ZM24.7882 31.95L25.2506 32.1404C25.7244 30.9898 26.2623 29.4758 26.8642 27.603L26.3882 27.45L25.9122 27.297C25.3142 29.1575 24.7854 30.6436 24.3259 31.7596L24.7882 31.95ZM26.3882 27.45L26.8653 27.5998L35.3153 0.699841L34.8382 0.549997L34.3612 0.400153L25.9112 27.3002L26.3882 27.45ZM34.8382 0.549997V1.05H35.0882V0.549997V0.0499973H34.8382V0.549997ZM35.0882 0.549997L34.6117 0.701276L44.2617 31.1013L44.7382 30.95L45.2148 30.7987L35.5648 0.39872L35.0882 0.549997ZM44.7382 30.95L44.2597 31.095C44.5986 32.2133 44.9605 33.1326 45.3501 33.841L45.7882 33.6L46.2263 33.359C45.8826 32.7341 45.5445 31.8867 45.2167 30.805L44.7382 30.95ZM45.7882 33.6L45.3555 33.8505C45.7507 34.533 46.2277 35.089 46.7926 35.5032L47.0882 35.1L47.3839 34.6968C46.9488 34.3777 46.5591 33.9336 46.2209 33.3495L45.7882 33.6ZM47.0882 35.1L46.7926 35.5032C47.3502 35.9122 47.9942 36.2044 48.717 36.3851L48.8382 35.9L48.9595 35.4149C48.3489 35.2623 47.8263 35.0212 47.3839 34.6968L47.0882 35.1ZM48.8382 35.9L48.7447 36.3912C49.4626 36.5279 50.3107 36.6464 51.2868 36.7473L51.3382 36.25L51.3897 35.7527C50.4324 35.6536 49.6139 35.5388 48.9318 35.4088L48.8382 35.9ZM51.3382 36.25V35.75H37.0882V36.25V36.75H51.3382V36.25ZM37.0882 36.25L37.138 36.7475C38.8602 36.5753 40.1579 36.0284 40.8141 34.962L40.3882 34.7L39.9624 34.438C39.5519 35.105 38.6496 35.5914 37.0385 35.7525L37.0882 36.25ZM40.3882 34.7L40.8067 34.9736C41.5025 33.9095 41.4422 32.3827 40.8652 30.5499L40.3882 30.7L39.9113 30.8501C40.4676 32.6173 40.4073 33.7572 39.9697 34.4264L40.3882 34.7ZM40.3882 30.7L40.8669 30.5556L39.1169 24.7556L38.6382 24.9L38.1595 25.0444L39.9095 30.8444L40.3882 30.7ZM38.6382 24.9V24.4H27.5882V24.9V25.4H38.6382V24.9ZM27.5882 24.9L27.1093 24.7563L26.2093 27.7563L26.6882 27.9L27.1671 28.0437L28.0671 25.0437L27.5882 24.9ZM27.7382 24.5V25H38.4882V24.5V24H27.7382V24.5ZM38.4882 24.5L38.9667 24.3547L33.6667 6.90469L33.1882 7.05L32.7098 7.19531L38.0098 24.6453L38.4882 24.5ZM33.1882 7.05L32.711 6.90094L27.261 24.3509L27.7382 24.5L28.2155 24.6491L33.6655 7.19906L33.1882 7.05ZM76.4953 35.65L76.7004 36.106L76.4953 35.15V35.65ZM74.4453 36.4L74.3079 35.9192L74.2939 35.9232L74.2801 35.9281L74.4453 36.4ZM68.9453 35.55L68.6252 35.9341L68.6321 35.9399L68.6392 35.9454L68.9453 35.55ZM65.5953 31.1L66.0281 30.8497L66.028 30.8496L65.5953 31.1ZM59.3453 20.3H58.8453V20.4342L58.9125 20.5504L59.3453 20.3ZM59.3453 20.25L58.9273 19.9755L58.8453 20.1005V20.25H59.3453ZM68.1453 6.85L67.7281 6.57437L67.7273 6.57554L68.1453 6.85ZM76.0453 1.25L76.073 1.74923L76.0453 0.749998V1.25ZM74.2953 1.6L74.4617 2.07149L74.2953 1.6ZM72.5453 2.55L72.8336 2.95851L72.838 2.95534L72.5453 2.55ZM70.7453 4.2L71.116 4.53545L70.7453 4.2ZM68.7453 6.85L69.1628 7.12503L69.1633 7.12433L68.7453 6.85ZM61.8953 17.25L61.4777 16.975L61.3036 17.2393L61.468 17.5098L61.8953 17.25ZM70.1953 30.9L70.6229 30.6409L70.6225 30.6402L70.1953 30.9ZM71.8953 33.5L71.4927 33.7966L71.5016 33.8086L71.5112 33.8201L71.8953 33.5ZM73.2953 34.9L72.9904 35.2963L72.9974 35.3017L73.0046 35.3069L73.2953 34.9ZM74.7453 35.55L74.6472 36.0403L74.6631 36.0435L74.6792 36.0456L74.7453 35.55ZM59.1953 33.85L58.7135 33.9838L58.7169 33.9961L58.7209 34.0081L59.1953 33.85ZM59.9953 35.25L60.3488 34.8964H60.3488L59.9953 35.25ZM61.1953 35.95L61.0579 36.4308L61.1953 35.95ZM62.6953 36.25V36.75L62.7573 35.7539L62.6953 36.25ZM51.1953 36.25L51.1368 35.7534L51.1953 36.75V36.25ZM52.7453 35.95L52.8826 36.4308L52.7453 35.95ZM53.8953 35.25L53.5417 34.8964L53.5324 34.9057L53.5236 34.9155L53.8953 35.25ZM54.6453 33.85L54.1709 33.6919L54.1669 33.7039L54.1635 33.7162L54.6453 33.85ZM54.6453 3.65L54.1635 3.78382L54.1669 3.79606L54.1709 3.80811L54.6453 3.65ZM53.8953 2.25L53.5236 2.58448L53.5324 2.59426L53.5417 2.60355L53.8953 2.25ZM52.7453 1.55L52.6079 2.03076H52.6079L52.7453 1.55ZM51.1953 1.25V0.749998L51.1368 1.74657L51.1953 1.25ZM62.6953 1.25L62.7573 1.74614L62.6953 0.749998V1.25ZM61.1953 1.55L61.3326 2.03076H61.3326L61.1953 1.55ZM59.9953 2.25L60.3488 2.60355L60.3488 2.60355L59.9953 2.25ZM59.1953 3.65L58.7209 3.49189L58.7169 3.50394L58.7135 3.51618L59.1953 3.65ZM76.4953 35.65L76.2901 35.194C75.6453 35.4842 74.9846 35.7259 74.3079 35.9192L74.4453 36.4L74.5826 36.8808C75.3059 36.6741 76.0119 36.4158 76.7004 36.106L76.4953 35.65ZM74.4453 36.4L74.2801 35.9281C73.666 36.143 73.0385 36.25 72.3953 36.25V36.75V37.25C73.152 37.25 73.8912 37.1237 74.6104 36.8719L74.4453 36.4ZM72.3953 36.75V36.25C71.2431 36.25 70.2001 35.8891 69.2514 35.1546L68.9453 35.55L68.6392 35.9454C69.7571 36.8109 71.0141 37.25 72.3953 37.25V36.75ZM68.9453 35.55L69.2654 35.1659C68.3346 34.3903 67.2535 32.9693 66.0281 30.8497L65.5953 31.1L65.1624 31.3503C66.4037 33.4974 67.5559 35.043 68.6252 35.9341L68.9453 35.55ZM65.5953 31.1L66.028 30.8496L59.778 20.0496L59.3453 20.3L58.9125 20.5504L65.1625 31.3504L65.5953 31.1ZM59.3453 20.3H59.8453V20.25H59.3453H58.8453V20.3H59.3453ZM59.3453 20.25L59.7632 20.5245L68.5632 7.12446L68.1453 6.85L67.7273 6.57554L58.9273 19.9755L59.3453 20.25ZM68.1453 6.85L68.5624 7.12563C69.1887 6.17781 69.664 5.33388 69.9798 4.59696C70.2927 3.8669 70.4654 3.20473 70.4449 2.63215C70.4236 2.03508 70.189 1.52779 69.707 1.19038C69.253 0.87256 68.6415 0.749998 67.9453 0.749998V1.25V1.75C68.549 1.75 68.9209 1.86077 69.1335 2.00961C69.3182 2.13887 69.4336 2.33159 69.4456 2.66784C69.4585 3.0286 69.3478 3.5331 69.0607 4.20304C68.7765 4.86612 68.3352 5.65552 67.7281 6.57437L68.1453 6.85ZM67.9453 1.25V1.75H76.0453V1.25V0.749998H67.9453V1.25ZM76.0453 1.25L76.0175 0.750768C75.3702 0.786729 74.7402 0.912734 74.1289 1.1285L74.2953 1.6L74.4617 2.07149C74.9837 1.88726 75.5203 1.77993 76.073 1.74923L76.0453 1.25ZM74.2953 1.6L74.1289 1.1285C73.5081 1.34758 72.8827 1.68955 72.2525 2.14466L72.5453 2.55L72.838 2.95534C73.4079 2.54378 73.9491 2.25241 74.4617 2.07149L74.2953 1.6ZM72.5453 2.55L72.2569 2.14151C71.6516 2.5688 71.0243 3.14631 70.3745 3.86454L70.7453 4.2L71.116 4.53545C71.7329 3.85369 72.3056 3.3312 72.8336 2.95848L72.5453 2.55ZM70.7453 4.2L70.3745 3.86454C69.719 4.58898 69.0368 5.4944 68.3272 6.57567L68.7453 6.85L69.1633 7.12433C69.8537 6.07227 70.5048 5.21101 71.116 4.53545L70.7453 4.2ZM68.7453 6.85L68.3277 6.57497L61.4777 16.975L61.8953 17.25L62.3128 17.525L69.1628 7.12503L68.7453 6.85ZM61.8953 17.25L61.468 17.5098L69.768 31.1598L70.1953 30.9L70.6225 30.6402L62.3225 16.9902L61.8953 17.25ZM70.1953 30.9L69.7677 31.1591C70.4379 32.2651 71.0134 33.146 71.4927 33.7966L71.8953 33.5L72.2978 33.2034C71.8438 32.5873 71.2859 31.7349 70.6229 30.6409L70.1953 30.9ZM71.8953 33.5L71.5112 33.8201C72.0256 34.4374 72.5185 34.9333 72.9904 35.2963L73.2953 34.9L73.6001 34.5037C73.2054 34.2001 72.765 33.7626 72.2794 33.1799L71.8953 33.5ZM73.2953 34.9L73.0046 35.3069C73.5217 35.6762 74.0697 35.9248 74.6472 36.0403L74.7453 35.55L74.8433 35.0597C74.4209 34.9752 74.0022 34.7905 73.5859 34.4931L73.2953 34.9ZM74.7453 35.55L74.6792 36.0456C75.2068 36.116 75.8131 36.15 76.4953 36.15V35.65V35.15C75.8441 35.15 75.2838 35.1174 74.8113 35.0544L74.7453 35.55ZM58.9453 31.4H58.4453C58.4453 32.453 58.5294 33.3211 58.7135 33.9838L59.1953 33.85L59.677 33.7162C59.5278 33.1789 59.4453 32.4137 59.4453 31.4H58.9453ZM59.1953 33.85L58.7209 34.0081C58.9375 34.6578 59.238 35.1999 59.6417 35.6036L59.9953 35.25L60.3488 34.8964C60.0858 34.6335 59.8531 34.2422 59.6696 33.6919L59.1953 33.85ZM59.9953 35.25L59.6417 35.6036C60.037 35.9988 60.5121 36.2748 61.0579 36.4308L61.1953 35.95L61.3326 35.4692C60.9451 35.3585 60.6202 35.1679 60.3488 34.8964L59.9953 35.25ZM61.1953 35.95L61.0579 36.4308C61.5517 36.5718 62.0771 36.6766 62.6332 36.7461L62.6953 36.25L62.7573 35.7539C62.2467 35.69 61.7721 35.5948 61.3326 35.4692L61.1953 35.95ZM62.6953 36.25V35.75H51.1953V36.25V36.75H62.6953V36.25ZM51.1953 36.25L51.2537 36.7466C51.8425 36.6773 52.3861 36.5726 52.8826 36.4308L52.7453 35.95L52.6079 35.4692C52.1711 35.594 51.6813 35.6894 51.1368 35.7534L51.1953 36.25ZM52.7453 35.95L52.8826 36.4308C53.4319 36.2738 53.8989 35.9933 54.2669 35.5845L53.8953 35.25L53.5236 34.9155C53.2916 35.1733 52.992 35.3595 52.6079 35.4692L52.7453 35.95ZM53.8953 35.25L54.2488 35.6036C54.6596 35.1928 54.9445 34.6411 55.127 33.9838L54.6453 33.85L54.1635 33.7162C54.0127 34.2589 53.7976 34.6406 53.5417 34.8964L53.8953 35.25ZM54.6453 33.85L55.1196 34.0081C55.3439 33.3351 55.4453 32.4576 55.4453 31.4H54.9453H54.4453C54.4453 32.4091 54.3466 33.1649 54.1709 33.6919L54.6453 33.85ZM54.9453 31.4H55.4453V6.1H54.9453H54.4453V31.4H54.9453ZM54.9453 6.1H55.4453C55.4453 5.04245 55.3439 4.16486 55.1196 3.49189L54.6453 3.65L54.1709 3.80811C54.3466 4.33513 54.4453 5.09088 54.4453 6.1H54.9453ZM54.6453 3.65L55.127 3.51618C54.9445 2.85892 54.6596 2.30724 54.2488 1.89645L53.8953 2.25L53.5417 2.60355C53.7976 2.85942 54.0127 3.24108 54.1635 3.78382L54.6453 3.65ZM53.8953 2.25L54.2669 1.91552C53.8989 1.50665 53.4319 1.22616 52.8826 1.06924L52.7453 1.55L52.6079 2.03076C52.992 2.1405 53.2916 2.32667 53.5236 2.58448L53.8953 2.25ZM52.7453 1.55L52.8826 1.06924C52.3861 0.92737 51.8425 0.822701 51.2537 0.753423L51.1953 1.25L51.1368 1.74657C51.6813 1.81063 52.1711 1.90596 52.6079 2.03076L52.7453 1.55ZM51.1953 1.25V1.75H62.6953V1.25V0.749998H51.1953V1.25ZM62.6953 1.25L62.6332 0.753859C62.0771 0.823377 61.5517 0.928148 61.0579 1.06924L61.1953 1.55L61.3326 2.03076C61.7721 1.90518 62.2467 1.80995 62.7573 1.74614L62.6953 1.25ZM61.1953 1.55L61.0579 1.06924C60.5121 1.22519 60.037 1.5012 59.6417 1.89645L59.9953 2.25L60.3488 2.60355C60.6202 2.33213 60.9451 2.14147 61.3326 2.03076L61.1953 1.55ZM59.9953 2.25L59.6417 1.89645C59.238 2.30012 58.9375 2.84225 58.7209 3.49189L59.1953 3.65L59.6696 3.80811C59.8531 3.25775 60.0858 2.86654 60.3488 2.60355L59.9953 2.25ZM59.1953 3.65L58.7135 3.51618C58.5294 4.17894 58.4453 5.04698 58.4453 6.1H58.9453H59.4453C59.4453 5.08635 59.5278 4.32106 59.677 3.78382L59.1953 3.65ZM58.9453 6.1H58.4453V31.4H58.9453H59.4453V6.1H58.9453ZM105.107 34.75L105.547 34.9866L105.75 34.6079L105.407 34.35L105.107 34.75ZM102.057 38.4L101.801 37.9701L101.793 37.9748L101.786 37.9799L102.057 38.4ZM95.8066 38.9L95.9601 38.4241L95.8066 38.9ZM92.5066 37.8L92.6688 37.327L92.6605 37.3243L92.5066 37.8ZM88.9066 36.75L89.0338 36.2665L88.9066 36.75ZM77.8066 36.25L77.7482 35.7534L77.8066 36.75V36.25ZM79.3066 35.95L79.1692 35.4691L79.1595 35.4721L79.3066 35.95ZM80.4566 35.25L80.103 34.8964L80.0937 34.9057L80.0849 34.9155L80.4566 35.25ZM81.2066 33.85L80.7323 33.6919L80.7282 33.7039L80.7248 33.7162L81.2066 33.85ZM81.2066 3.65L80.7248 3.78382L80.7282 3.79606L80.7323 3.80811L81.2066 3.65ZM80.4566 2.25L80.0849 2.58448L80.0937 2.59426L80.103 2.60355L80.4566 2.25ZM79.3066 1.55L79.1595 2.02799L79.1692 2.03076L79.3066 1.55ZM77.8066 1.25V0.749998L77.7482 1.74657L77.8066 1.25ZM89.3066 1.25L89.365 1.74657L89.3066 0.749998V1.25ZM87.7566 1.55L87.894 2.03076L87.7566 1.55ZM86.5566 2.25L86.203 1.89645L86.1937 1.90574L86.1849 1.91552L86.5566 2.25ZM85.8066 3.65L85.3323 3.49189L85.3282 3.50394L85.3248 3.51618L85.8066 3.65ZM85.5566 35.6H85.0566V36.1H85.5566V35.6ZM92.8066 36.1L92.7306 36.5943L92.739 36.5954L92.8066 36.1ZM102.107 36.15L101.982 35.6658L101.978 35.6669L102.107 36.15ZM104.907 34.6L105.207 34.2L104.874 33.9506L104.568 34.232L104.907 34.6ZM101.907 23.75L101.425 23.8838L101.428 23.8961L101.432 23.9081L101.907 23.75ZM102.657 25.15L102.285 25.4845L102.294 25.4943L102.303 25.5036L102.657 25.15ZM103.857 25.85L103.719 26.3308L103.857 25.85ZM105.407 26.15V26.65L105.465 25.6534L105.407 26.15ZM94.2066 26.15L94.1482 25.6534L94.2066 26.65V26.15ZM95.7566 25.9L95.8614 26.3889L95.8778 26.3854L95.894 26.3808L95.7566 25.9ZM96.9066 25.2L96.553 24.8464L96.5437 24.8557L96.5349 24.8655L96.9066 25.2ZM97.6566 23.8L97.1823 23.6419L97.1782 23.6539L97.1748 23.6662L97.6566 23.8ZM97.6566 3.6L97.1748 3.73382L97.1782 3.74606L97.1823 3.75811L97.6566 3.6ZM96.9066 2.25L96.5349 2.58448L96.5526 2.60404L96.5721 2.62165L96.9066 2.25ZM95.7566 1.55L95.6192 2.03076L95.7566 1.55ZM94.2066 1.25V0.749998L94.1482 1.74657L94.2066 1.25ZM105.407 1.25L105.465 1.74657L105.407 0.749998V1.25ZM103.857 1.55L103.994 2.03076H103.994L103.857 1.55ZM102.657 2.25L102.303 1.89645L102.294 1.90574L102.285 1.91552L102.657 2.25ZM101.907 3.65L101.432 3.49188L101.428 3.50394L101.425 3.51618L101.907 3.65ZM105.107 34.75L104.666 34.5134C103.718 36.2797 102.754 37.4042 101.801 37.9701L102.057 38.4L102.312 38.8299C103.492 38.1292 104.562 36.8203 105.547 34.9866L105.107 34.75ZM102.057 38.4L101.786 37.9799C100.826 38.599 99.8356 38.9 98.8066 38.9V39.4V39.9C100.044 39.9 101.221 39.5343 102.328 38.8201L102.057 38.4ZM98.8066 39.4V38.9C97.898 38.9 96.9499 38.7434 95.9601 38.4241L95.8066 38.9L95.6531 39.3759C96.73 39.7232 97.7818 39.9 98.8066 39.9V39.4ZM95.8066 38.9L95.9601 38.4241C94.93 38.0919 93.8329 37.7262 92.6688 37.327L92.5066 37.8L92.3444 38.273C93.5136 38.6738 94.6165 39.0415 95.6531 39.3759L95.8066 38.9ZM92.5066 37.8L92.6605 37.3243C91.5175 36.9545 90.3086 36.6019 89.0338 36.2665L88.9066 36.75L88.7793 37.2335C90.0379 37.5647 91.229 37.9122 92.3527 38.2757L92.5066 37.8ZM88.9066 36.75L89.0338 36.2665C87.7229 35.9215 86.3466 35.75 84.9066 35.75V36.25V36.75C86.2666 36.75 87.557 36.9119 88.7793 37.2335L88.9066 36.75ZM84.9066 36.25V35.75H77.8066V36.25V36.75H84.9066V36.25ZM77.8066 36.25L77.865 36.7466C78.4544 36.6772 78.9851 36.5721 79.4536 36.4279L79.3066 35.95L79.1595 35.4721C78.7614 35.5946 78.2921 35.6894 77.7482 35.7534L77.8066 36.25ZM79.3066 35.95L79.444 36.4308C79.9932 36.2738 80.4603 35.9933 80.8282 35.5845L80.4566 35.25L80.0849 34.9155C79.8529 35.1733 79.5533 35.3595 79.1692 35.4692L79.3066 35.95ZM80.4566 35.25L80.8101 35.6036C81.2209 35.1928 81.5058 34.6411 81.6884 33.9838L81.2066 33.85L80.7248 33.7162C80.5741 34.2589 80.3589 34.6406 80.103 34.8964L80.4566 35.25ZM81.2066 33.85L81.6809 34.0081C81.9053 33.3351 82.0066 32.4576 82.0066 31.4H81.5066H81.0066C81.0066 32.4091 80.9079 33.1649 80.7323 33.6919L81.2066 33.85ZM81.5066 31.4H82.0066V6.1H81.5066H81.0066V31.4H81.5066ZM81.5066 6.1H82.0066C82.0066 5.04245 81.9053 4.16486 81.6809 3.49189L81.2066 3.65L80.7323 3.80811C80.9079 4.33513 81.0066 5.09088 81.0066 6.1H81.5066ZM81.2066 3.65L81.6884 3.51618C81.5058 2.85892 81.2209 2.30724 80.8101 1.89645L80.4566 2.25L80.103 2.60355C80.3589 2.85942 80.5741 3.24108 80.7248 3.78382L81.2066 3.65ZM80.4566 2.25L80.8282 1.91552C80.4603 1.50665 79.9932 1.22616 79.444 1.06924L79.3066 1.55L79.1692 2.03076C79.5533 2.1405 79.8529 2.32667 80.0849 2.58448L80.4566 2.25ZM79.3066 1.55L79.4536 1.07211C78.9851 0.927948 78.4544 0.822764 77.865 0.753423L77.8066 1.25L77.7482 1.74657C78.2921 1.81057 78.7614 1.90538 79.1595 2.02789L79.3066 1.55ZM77.8066 1.25V1.75H89.3066V1.25V0.749998H77.8066V1.25ZM89.3066 1.25L89.2482 0.753423C88.6593 0.822701 88.1158 0.92737 87.6192 1.06924L87.7566 1.55L87.894 2.03076C88.3307 1.90596 88.8205 1.81063 89.365 1.74657L89.3066 1.25ZM87.7566 1.55L87.6192 1.06924C87.0734 1.22519 86.5983 1.5012 86.203 1.89645L86.5566 2.25L86.9101 2.60355C87.1816 2.33213 87.5065 2.14147 87.894 2.03076L87.7566 1.55ZM86.5566 2.25L86.1849 1.91552C85.8242 2.31638 85.5457 2.85152 85.3323 3.49189L85.8066 3.65L86.2809 3.80811C86.4675 3.24848 86.689 2.85029 86.9282 2.58448L86.5566 2.25ZM85.8066 3.65L85.3248 3.51618C85.1407 4.17894 85.0566 5.04698 85.0566 6.1H85.5566H86.0566C86.0566 5.08635 86.1391 4.32106 86.2884 3.78382L85.8066 3.65ZM85.5566 6.1H85.0566V35.6H85.5566H86.0566V6.1H85.5566ZM85.5566 35.6V36.1C88.203 36.1 90.5938 36.2654 92.7306 36.5942L92.8066 36.1L92.8826 35.6058C90.6861 35.2679 88.2435 35.1 85.5566 35.1V35.6ZM92.8066 36.1L92.739 36.5954C94.9565 36.8978 96.9795 37.05 98.8066 37.05V36.55V36.05C97.0337 36.05 95.0567 35.9022 92.8742 35.6046L92.8066 36.1ZM98.8066 36.55V37.05C100.043 37.05 101.187 36.9126 102.235 36.6331L102.107 36.15L101.978 35.6669C101.026 35.9207 99.9698 36.05 98.8066 36.05V36.55ZM102.107 36.15L102.232 36.6341C103.349 36.3457 104.355 35.7868 105.245 34.968L104.907 34.6L104.568 34.232C103.791 34.9465 102.93 35.421 101.982 35.6659L102.107 36.15ZM104.907 34.6L104.607 35L104.807 35.15L105.107 34.75L105.407 34.35L105.207 34.2L104.907 34.6ZM101.657 21.3H101.157C101.157 22.353 101.241 23.2211 101.425 23.8838L101.907 23.75L102.388 23.6162C102.239 23.0789 102.157 22.3137 102.157 21.3H101.657ZM101.907 23.75L101.432 23.9081C101.646 24.5485 101.924 25.0836 102.285 25.4845L102.657 25.15L103.028 24.8155C102.789 24.5497 102.567 24.1515 102.381 23.5919L101.907 23.75ZM102.657 25.15L102.303 25.5036C102.698 25.8988 103.173 26.1748 103.719 26.3308L103.857 25.85L103.994 25.3692C103.606 25.2585 103.282 25.0679 103.01 24.7964L102.657 25.15ZM103.857 25.85L103.719 26.3308C104.216 26.4726 104.759 26.5773 105.348 26.6466L105.407 26.15L105.465 25.6534C104.921 25.5894 104.431 25.494 103.994 25.3692L103.857 25.85ZM105.407 26.15V25.65H94.2066V26.15V26.65H105.407V26.15ZM94.2066 26.15L94.265 26.6466C94.8443 26.5784 95.3768 26.4927 95.8614 26.3889L95.7566 25.9L95.6518 25.4111C95.2031 25.5073 94.7022 25.5882 94.1482 25.6534L94.2066 26.15ZM95.7566 25.9L95.894 26.3808C96.4432 26.2238 96.9103 25.9433 97.2782 25.5345L96.9066 25.2L96.5349 24.8655C96.3029 25.1233 96.0033 25.3095 95.6192 25.4192L95.7566 25.9ZM96.9066 25.2L97.2601 25.5536C97.6709 25.1428 97.9558 24.5911 98.1384 23.9338L97.6566 23.8L97.1748 23.6662C97.0241 24.2089 96.8089 24.5906 96.553 24.8464L96.9066 25.2ZM97.6566 23.8L98.1309 23.9581C98.3553 23.2851 98.4566 22.4075 98.4566 21.35H97.9566H97.4566C97.4566 22.3591 97.3579 23.1149 97.1823 23.6419L97.6566 23.8ZM97.9566 21.35H98.4566V6.05H97.9566H97.4566V21.35H97.9566ZM97.9566 6.05H98.4566C98.4566 4.99245 98.3553 4.11486 98.1309 3.44188L97.6566 3.6L97.1823 3.75811C97.3579 4.28513 97.4566 5.04088 97.4566 6.05H97.9566ZM97.6566 3.6L98.1384 3.46617C97.9557 2.80876 97.6676 2.26221 97.2411 1.87835L96.9066 2.25L96.5721 2.62165C96.8123 2.83779 97.0241 3.19124 97.1748 3.73382L97.6566 3.6ZM96.9066 2.25L97.2782 1.91552C96.9103 1.50665 96.4432 1.22616 95.894 1.06924L95.7566 1.55L95.6192 2.03076C96.0033 2.1405 96.3029 2.32667 96.5349 2.58448L96.9066 2.25ZM95.7566 1.55L95.894 1.06924C95.3974 0.92737 94.8539 0.822701 94.265 0.753423L94.2066 1.25L94.1482 1.74657C94.6926 1.81063 95.1824 1.90596 95.6192 2.03076L95.7566 1.55ZM94.2066 1.25V1.75H105.407V1.25V0.749998H94.2066V1.25ZM105.407 1.25L105.348 0.753423C104.759 0.822701 104.216 0.92737 103.719 1.06924L103.857 1.55L103.994 2.03076C104.431 1.90596 104.921 1.81063 105.465 1.74657L105.407 1.25ZM103.857 1.55L103.719 1.06924C103.173 1.22519 102.698 1.5012 102.303 1.89645L102.657 2.25L103.01 2.60355C103.282 2.33213 103.606 2.14147 103.994 2.03076L103.857 1.55ZM102.657 2.25L102.285 1.91552C101.924 2.31638 101.646 2.85152 101.432 3.49188L101.907 3.65L102.381 3.80811C102.567 3.24848 102.789 2.85029 103.028 2.58448L102.657 2.25ZM101.907 3.65L101.425 3.51618C101.241 4.17894 101.157 5.04698 101.157 6.1H101.657H102.157C102.157 5.08635 102.239 4.32106 102.388 3.78382L101.907 3.65ZM101.657 6.1H101.157V21.3H101.657H102.157V6.1H101.657ZM115.493 33.85L115.011 33.9838L115.015 33.9961L115.019 34.0081L115.493 33.85ZM116.293 35.25L116.646 34.8964L116.293 35.25ZM117.493 35.95L117.356 36.4308L117.493 35.95ZM118.993 36.25V36.75L119.055 35.7539L118.993 36.25ZM107.493 36.25L107.435 35.7534L107.493 36.75V36.25ZM109.043 35.95L109.18 36.4308L109.043 35.95ZM110.193 35.25L109.839 34.8964L109.83 34.9057L109.821 34.9155L110.193 35.25ZM110.943 33.85L110.469 33.6919L110.465 33.7039L110.461 33.7162L110.943 33.85ZM110.943 3.65L110.461 3.78382L110.465 3.79606L110.469 3.80811L110.943 3.65ZM110.193 2.25L109.821 2.58448L109.83 2.59426L109.839 2.60355L110.193 2.25ZM109.043 1.55L108.906 2.03076H108.906L109.043 1.55ZM107.493 1.25V0.749998L107.435 1.74657L107.493 1.25ZM128.743 1.25L129.236 1.16592L129.165 0.749998H128.743V1.25ZM130.193 9.75L129.719 9.90811L130.686 9.66592L130.193 9.75ZM129.593 7.8L129.109 7.92548L129.111 7.9338L129.114 7.94204L129.593 7.8ZM128.293 5.1L127.884 5.38774V5.38775L128.293 5.1ZM125.643 2.75L125.38 3.1755L125.389 3.18097L125.643 2.75ZM115.243 1.7V1.2H114.743V1.7H115.243ZM115.243 17.6H114.743V18.1H115.243V17.6ZM123.693 17.15L123.963 17.5706L123.97 17.566L123.693 17.15ZM124.793 15.95L124.359 15.7019L124.352 15.714L124.346 15.7264L124.793 15.95ZM125.343 14.45L125.834 14.5421L125.835 14.5369L125.343 14.45ZM125.593 12.9H126.093L125.098 12.8293L125.593 12.9ZM125.593 22.75L125.098 22.8207L126.093 22.75H125.593ZM125.343 21.25L125.834 21.1579V21.1579L125.343 21.25ZM124.793 19.75L124.34 19.9614L124.349 19.9801L124.359 19.9981L124.793 19.75ZM123.693 18.55L123.402 18.9569L123.419 18.9685L123.436 18.9787L123.693 18.55ZM115.243 18.05V17.55H114.743V18.05H115.243ZM115.243 31.4H114.743C114.743 32.453 114.827 33.3211 115.011 33.9838L115.493 33.85L115.975 33.7162C115.825 33.1789 115.743 32.4137 115.743 31.4H115.243ZM115.493 33.85L115.019 34.0081C115.235 34.6578 115.536 35.1999 115.939 35.6036L116.293 35.25L116.646 34.8964C116.383 34.6335 116.151 34.2422 115.967 33.6919L115.493 33.85ZM116.293 35.25L115.939 35.6036C116.335 35.9988 116.81 36.2748 117.356 36.4308L117.493 35.95L117.63 35.4692C117.243 35.3585 116.918 35.1679 116.646 34.8964L116.293 35.25ZM117.493 35.95L117.356 36.4308C117.849 36.5718 118.375 36.6766 118.931 36.7461L118.993 36.25L119.055 35.7539C118.544 35.69 118.07 35.5948 117.63 35.4692L117.493 35.95ZM118.993 36.25V35.75H107.493V36.25V36.75H118.993V36.25ZM107.493 36.25L107.551 36.7466C108.14 36.6773 108.684 36.5726 109.18 36.4308L109.043 35.95L108.906 35.4692C108.469 35.594 107.979 35.6894 107.435 35.7534L107.493 36.25ZM109.043 35.95L109.18 36.4308C109.73 36.2738 110.197 35.9933 110.565 35.5845L110.193 35.25L109.821 34.9155C109.589 35.1733 109.29 35.3595 108.906 35.4692L109.043 35.95ZM110.193 35.25L110.546 35.6036C110.957 35.1928 111.242 34.6411 111.425 33.9838L110.943 33.85L110.461 33.7162C110.31 34.2589 110.095 34.6406 109.839 34.8964L110.193 35.25ZM110.943 33.85L111.417 34.0081C111.642 33.3351 111.743 32.4576 111.743 31.4H111.243H110.743C110.743 32.4091 110.644 33.1649 110.469 33.6919L110.943 33.85ZM111.243 31.4H111.743V6.1H111.243H110.743V31.4H111.243ZM111.243 6.1H111.743C111.743 5.04245 111.642 4.16486 111.417 3.49189L110.943 3.65L110.469 3.80811C110.644 4.33513 110.743 5.09088 110.743 6.1H111.243ZM110.943 3.65L111.425 3.51618C111.242 2.85892 110.957 2.30724 110.546 1.89645L110.193 2.25L109.839 2.60355C110.095 2.85942 110.31 3.24108 110.461 3.78382L110.943 3.65ZM110.193 2.25L110.565 1.91552C110.197 1.50665 109.73 1.22616 109.18 1.06924L109.043 1.55L108.906 2.03076C109.29 2.1405 109.589 2.32667 109.821 2.58448L110.193 2.25ZM109.043 1.55L109.18 1.06924C108.684 0.92737 108.14 0.822701 107.551 0.753423L107.493 1.25L107.435 1.74657C107.979 1.81063 108.469 1.90596 108.906 2.03076L109.043 1.55ZM107.493 1.25V1.75H128.743V1.25V0.749998H107.493V1.25ZM128.743 1.25L128.25 1.33408L129.7 9.83408L130.193 9.75L130.686 9.66592L129.236 1.16592L128.743 1.25ZM130.193 9.75L130.667 9.59188C130.537 9.20049 130.339 8.55744 130.072 7.65796L129.593 7.8L129.114 7.94204C129.38 8.84255 129.582 9.4995 129.719 9.90811L130.193 9.75ZM129.593 7.8L130.077 7.67452C129.826 6.70675 129.364 5.75257 128.702 4.81225L128.293 5.1L127.884 5.38775C128.489 6.24743 128.893 7.09324 129.109 7.92548L129.593 7.8ZM128.293 5.1L128.702 4.81225C128.02 3.84376 127.079 3.01489 125.896 2.31903L125.643 2.75L125.389 3.18097C126.473 3.81844 127.299 4.55624 127.884 5.38774L128.293 5.1ZM125.643 2.75L125.906 2.3246C124.665 1.55857 123.03 1.2 121.043 1.2V1.7V2.2C122.923 2.2 124.354 2.54143 125.38 3.1754L125.643 2.75ZM121.043 1.7V1.2H115.243V1.7V2.2H121.043V1.7ZM115.243 1.7H114.743V17.6H115.243H115.743V1.7H115.243ZM115.243 17.6V18.1H121.793V17.6V17.1H115.243V17.6ZM121.793 17.6V18.1C122.649 18.1 123.388 17.9406 123.963 17.5706L123.693 17.15L123.423 16.7294C123.065 16.9594 122.537 17.1 121.793 17.1V17.6ZM123.693 17.15L123.97 17.566C124.532 17.1918 124.962 16.7292 125.24 16.1736L124.793 15.95L124.346 15.7264C124.157 16.1041 123.854 16.4415 123.416 16.734L123.693 17.15ZM124.793 15.95L125.227 16.1981C125.522 15.6825 125.724 15.1297 125.834 14.5421L125.343 14.45L124.851 14.3579C124.762 14.8369 124.598 15.2841 124.359 15.7019L124.793 15.95ZM125.343 14.45L125.835 14.5369C125.936 13.966 126.02 13.4438 126.088 12.9707L125.593 12.9L125.098 12.8293C125.032 13.2895 124.95 13.8007 124.851 14.3631L125.343 14.45ZM125.593 12.9H125.093V22.75H125.593H126.093V12.9H125.593ZM125.593 22.75L126.088 22.6793C126.02 22.2045 125.936 21.6973 125.834 21.1579L125.343 21.25L124.851 21.3421C124.95 21.8694 125.032 22.3622 125.098 22.8207L125.593 22.75ZM125.343 21.25L125.834 21.1579C125.724 20.5702 125.522 20.0175 125.227 19.5019L124.793 19.75L124.359 19.9981C124.598 20.4158 124.762 20.8631 124.851 21.3421L125.343 21.25ZM124.793 19.75L125.246 19.5386C124.968 18.943 124.531 18.4695 123.95 18.1213L123.693 18.55L123.436 18.9787C123.855 19.2305 124.151 19.557 124.34 19.9614L124.793 19.75ZM123.693 18.55L123.984 18.1431C123.404 17.7295 122.657 17.55 121.793 17.55V18.05V18.55C122.529 18.55 123.048 18.7038 123.402 18.9569L123.693 18.55ZM121.793 18.05V17.55H115.243V18.05V18.55H121.793V18.05ZM115.243 18.05H114.743V31.4H115.243H115.743V18.05H115.243ZM158.45 1.25L158.525 1.74436L158.45 0.749998V1.25ZM155.75 3.5L156.193 3.73242L155.75 3.5ZM154.7 36.9V37.4H155.2V36.9H154.7ZM154.25 36.9L153.814 37.1457L153.958 37.4H154.25V36.9ZM136.45 5.35L136.885 5.10431L135.95 3.44621V5.35H136.45ZM137.45 34L137.003 34.2237L137.007 34.2324L137.45 34ZM140.15 36.25V36.75L140.225 35.7556L140.15 36.25ZM132.25 36.25L132.177 35.7553L132.25 36.75V36.25ZM134.95 34L134.507 33.7675L134.503 33.7764L134.95 34ZM135.05 3.4L134.618 3.65107L134.622 3.65939L134.628 3.66753L135.05 3.4ZM132.25 1.25V0.749998L132.099 1.72679L132.25 1.25ZM139.05 1.25L139.485 1.00271L139.341 0.749998H139.05V1.25ZM154.3 28.05L153.865 28.2973L154.8 29.9397V28.05H154.3ZM153.25 3.5L153.693 3.26758V3.26758L153.25 3.5ZM150.55 1.25V0.749998L150.475 1.74436L150.55 1.25ZM158.45 1.25L158.375 0.75564C157.066 0.953986 156.053 1.84731 155.307 3.26758L155.75 3.5L156.193 3.73242C156.847 2.48602 157.634 1.87934 158.525 1.74436L158.45 1.25ZM155.75 3.5L155.307 3.26758C154.558 4.69427 154.2 6.481 154.2 8.6H154.7H155.2C155.2 6.58567 155.542 4.9724 156.193 3.73242L155.75 3.5ZM154.7 8.6H154.2V36.9H154.7H155.2V8.6H154.7ZM154.7 36.9V36.4H154.25V36.9V37.4H154.7V36.9ZM154.25 36.9L154.685 36.6543L136.885 5.10431L136.45 5.35L136.014 5.59569L153.814 37.1457L154.25 36.9ZM136.45 5.35H135.95V28.9H136.45H136.95V5.35H136.45ZM136.45 28.9H135.95C135.95 31.016 136.291 32.7993 137.003 34.2236L137.45 34L137.897 33.7764C137.276 32.534 136.95 30.9173 136.95 28.9H136.45ZM137.45 34L137.007 34.2324C137.753 35.6527 138.766 36.546 140.075 36.7444L140.15 36.25L140.225 35.7556C139.334 35.6207 138.547 35.014 137.893 33.7676L137.45 34ZM140.15 36.25V35.75H132.25V36.25V36.75H140.15V36.25ZM132.25 36.25L132.323 36.7447C133.665 36.5473 134.682 35.6542 135.397 34.2236L134.95 34L134.503 33.7764C133.885 35.0124 133.102 35.6194 132.177 35.7553L132.25 36.25ZM134.95 34L135.393 34.2324C136.142 32.8057 136.5 31.019 136.5 28.9H136H135.5C135.5 30.9143 135.158 32.5276 134.507 33.7676L134.95 34ZM136 28.9H136.5V8H136H135.5V28.9H136ZM136 8H136.5C136.5 5.90052 136.182 4.25231 135.472 3.13247L135.05 3.4L134.628 3.66753C135.185 4.54769 135.5 5.96614 135.5 8H136ZM135.05 3.4L135.482 3.14893C134.813 1.99556 133.772 1.20619 132.401 0.773207L132.25 1.25L132.099 1.72679C133.262 2.0938 134.087 2.73777 134.618 3.65107L135.05 3.4ZM132.25 1.25V1.75H139.05V1.25V0.749998H132.25V1.25ZM139.05 1.25L138.615 1.49728L153.865 28.2973L154.3 28.05L154.735 27.8027L139.485 1.00271L139.05 1.25ZM154.3 28.05H154.8V8.6H154.3H153.8V28.05H154.3ZM154.3 8.6H154.8C154.8 6.481 154.442 4.69427 153.693 3.26758L153.25 3.5L152.807 3.73242C153.458 4.9724 153.8 6.58567 153.8 8.6H154.3ZM153.25 3.5L153.693 3.26758C152.947 1.84731 151.934 0.953986 150.625 0.75564L150.55 1.25L150.475 1.74436C151.366 1.87934 152.153 2.48602 152.807 3.73242L153.25 3.5ZM150.55 1.25V1.75H158.45V1.25V0.749998H150.55V1.25ZM195.647 26.75L195.193 26.5396L195.192 26.5426L195.647 26.75ZM191.497 32.45L191.828 32.8249L191.828 32.8245L191.497 32.45ZM185.647 35.85L185.482 35.3778L185.48 35.3786L185.647 35.85ZM172.247 35.85L172.08 36.3214L172.082 36.3222L172.247 35.85ZM166.447 32.45L166.112 32.8213L166.116 32.8249L166.447 32.45ZM162.297 26.75L161.841 26.9549L161.844 26.9629L162.297 26.75ZM162.297 10.75L161.844 10.5371L161.842 10.5426L162.297 10.75ZM166.447 5.05L166.116 4.67548L166.112 4.67871L166.447 5.05ZM172.297 1.65L172.457 2.12363L172.461 2.12215L172.297 1.65ZM185.697 1.65L185.53 2.12144L185.539 2.12434L185.697 1.65ZM191.547 5.05L191.212 5.42128L191.547 5.05ZM195.647 10.75L195.192 10.9574L195.194 10.9629L195.647 10.75ZM166.147 24.7L165.676 24.8689L165.677 24.8709L166.147 24.7ZM169.747 31.15L169.365 31.473L169.369 31.4772L169.747 31.15ZM174.797 35.05L174.586 35.5036L174.596 35.5079L174.797 35.05ZM185.247 35.35L185.056 34.8879L185.247 35.35ZM189.297 32.5L188.934 32.1561L188.929 32.1613L189.297 32.5ZM192.147 27.8L191.681 27.6171L191.679 27.6244L192.147 27.8ZM193.247 21.25L192.747 21.2449V21.25H193.247ZM191.847 12.55L191.378 12.7229L191.38 12.7303L191.847 12.55ZM188.097 6.25L187.729 6.58855L187.733 6.59245L188.097 6.25ZM182.897 2.5L182.692 2.9563L182.699 2.95916L182.897 2.5ZM172.447 2.1L172.624 2.56782L172.633 2.56424L172.447 2.1ZM168.497 4.75L168.133 4.40668V4.40669L168.497 4.75ZM165.747 9.25L165.281 9.06875L165.278 9.07634L165.747 9.25ZM197.247 18.75H196.747C196.747 21.7247 196.224 24.3172 195.193 26.5396L195.647 26.75L196.1 26.9604C197.203 24.5828 197.747 21.8419 197.747 18.75H197.247ZM195.647 26.75L195.192 26.5426C194.185 28.7505 192.842 30.5921 191.166 32.0755L191.497 32.45L191.828 32.8245C193.618 31.2413 195.042 29.2829 196.102 26.9574L195.647 26.75ZM191.497 32.45L191.166 32.0751C189.516 33.531 187.623 34.6319 185.482 35.3778L185.647 35.85L185.811 36.3222C188.071 35.5348 190.078 34.369 191.828 32.8249L191.497 32.45ZM185.647 35.85L185.48 35.3786C183.366 36.1266 181.206 36.5 178.997 36.5V37V37.5C181.321 37.5 183.594 37.1067 185.814 36.3214L185.647 35.85ZM178.997 37V36.5C176.754 36.5 174.559 36.1263 172.411 35.3778L172.247 35.85L172.082 36.3222C174.334 37.107 176.64 37.5 178.997 37.5V37ZM172.247 35.85L172.414 35.3786C170.306 34.633 168.429 33.5321 166.778 32.0751L166.447 32.45L166.116 32.8249C167.865 34.3679 169.854 35.5336 172.08 36.3214L172.247 35.85ZM166.447 32.45L166.782 32.0787C165.135 30.5939 163.79 28.7494 162.749 26.5371L162.297 26.75L161.844 26.9629C162.937 29.2839 164.358 31.2395 166.112 32.8213L166.447 32.45ZM162.297 26.75L162.753 26.5451C161.754 24.3212 161.247 21.7268 161.247 18.75H160.747H160.247C160.247 21.8399 160.773 24.5788 161.841 26.9549L162.297 26.75ZM160.747 18.75H161.247C161.247 15.7388 161.754 13.1457 162.752 10.9574L162.297 10.75L161.842 10.5426C160.773 12.8876 160.247 15.6279 160.247 18.75H160.747ZM162.297 10.75L162.749 10.9629C163.79 8.75061 165.135 6.90612 166.782 5.42128L166.447 5.05L166.112 4.67871C164.358 6.26055 162.937 8.21605 161.844 10.5371L162.297 10.75ZM166.447 5.05L166.778 5.4245C168.462 3.93472 170.354 2.83535 172.457 2.12361L172.297 1.65L172.137 1.17639C169.906 1.93131 167.898 3.09861 166.116 4.6755L166.447 5.05ZM172.297 1.65L172.461 2.12215C174.61 1.3734 176.788 0.999998 178.997 0.999998V0.499998V-1.90735e-06C176.673 -1.90735e-06 174.384 0.393266 172.132 1.17785L172.297 1.65ZM178.997 0.499998V0.999998C181.24 0.999998 183.417 1.37366 185.53 2.12136L185.697 1.65L185.864 1.17864C183.643 0.393003 181.354 -1.90735e-06 178.997 -1.90735e-06V0.499998ZM185.697 1.65L185.539 2.12434C187.674 2.83617 189.564 3.93473 191.212 5.42128L191.547 5.05L191.882 4.67871C190.13 3.0986 188.119 1.9305 185.855 1.17566L185.697 1.65ZM191.547 5.05L191.212 5.42128C192.857 6.90487 194.184 8.74747 195.192 10.9574L195.647 10.75L196.102 10.5426C195.043 8.2192 193.637 6.26179 191.882 4.67871L191.547 5.05ZM195.647 10.75L195.194 10.9629C196.224 13.1497 196.747 15.7408 196.747 18.75H197.247H197.747C197.747 15.6259 197.203 12.8836 196.099 10.5371L195.647 10.75ZM164.747 15.55H164.247C164.247 19.0929 164.719 22.2024 165.676 24.8689L166.147 24.7L166.617 24.5311C165.708 21.9975 165.247 19.0071 165.247 15.55H164.747ZM166.147 24.7L165.677 24.8709C166.626 27.4821 167.853 29.6864 169.365 31.473L169.747 31.15L170.129 30.827C168.707 29.1469 167.534 27.0512 166.617 24.5291L166.147 24.7ZM169.747 31.15L169.369 31.4772C170.91 33.2579 172.648 34.6038 174.586 35.5035L174.797 35.05L175.007 34.5965C173.212 33.7628 171.584 32.5088 170.125 30.8228L169.747 31.15ZM174.797 35.05L174.596 35.5079C176.553 36.3664 178.522 36.8 180.497 36.8V36.3V35.8C178.672 35.8 176.84 35.4002 174.998 34.5921L174.797 35.05ZM180.497 36.3V36.8C182.197 36.8 183.845 36.4701 185.438 35.8121L185.247 35.35L185.056 34.8879C183.582 35.4966 182.064 35.8 180.497 35.8V36.3ZM185.247 35.35L185.438 35.8121C187.041 35.15 188.451 34.1568 189.665 32.8387L189.297 32.5L188.929 32.1613C187.81 33.3765 186.519 34.2834 185.056 34.8879L185.247 35.35ZM189.297 32.5L189.66 32.8439C190.912 31.5223 191.895 29.8959 192.615 27.9756L192.147 27.8L191.679 27.6244C190.999 29.4374 190.082 30.9444 188.934 32.1561L189.297 32.5ZM192.147 27.8L192.612 27.9828C193.373 26.0455 193.747 23.7977 193.747 21.25H193.247H192.747C192.747 23.7023 192.387 25.8211 191.681 27.6172L192.147 27.8ZM193.247 21.25L193.747 21.255C193.781 17.9059 193.307 14.9407 192.313 12.3697L191.847 12.55L191.38 12.7303C192.32 15.1593 192.78 17.9941 192.747 21.2449L193.247 21.25ZM191.847 12.55L192.316 12.3771C191.364 9.792 190.081 7.63113 188.461 5.90754L188.097 6.25L187.733 6.59245C189.246 8.20221 190.463 10.2413 191.378 12.7229L191.847 12.55ZM188.097 6.25L188.465 5.91147C186.888 4.19706 185.097 2.90405 183.095 2.04084L182.897 2.5L182.699 2.95916C184.563 3.76262 186.239 4.9696 187.729 6.58853L188.097 6.25ZM182.897 2.5L183.101 2.04375C181.11 1.15103 179.107 0.699998 177.097 0.699998V1.2V1.7C178.953 1.7 180.817 2.11563 182.692 2.95625L182.897 2.5ZM177.097 1.2V0.699998C175.433 0.699998 173.82 1.01237 172.261 1.63576L172.447 2.1L172.633 2.56424C174.074 1.98763 175.561 1.7 177.097 1.7V1.2ZM172.447 2.1L172.27 1.63226C170.697 2.22651 169.317 3.15326 168.133 4.40668L168.497 4.75L168.86 5.09331C169.943 3.94674 171.197 3.10682 172.624 2.56773L172.447 2.1ZM168.497 4.75L168.133 4.40669C166.949 5.66086 166 7.21871 165.281 9.06878L165.747 9.25L166.213 9.43122C166.893 7.68128 167.778 6.23913 168.86 5.09331L168.497 4.75ZM165.747 9.25L165.278 9.07634C164.586 10.9439 164.247 13.105 164.247 15.55H164.747H165.247C165.247 13.195 165.574 11.1561 166.216 9.42366L165.747 9.25ZM252.905 17.6L252.44 17.7824L252.44 17.7836L252.905 17.6ZM253.955 24.95L253.459 24.8871L253.459 24.8932L253.955 24.95ZM251.705 31.15L252.115 31.4362L252.118 31.4326L251.705 31.15ZM246.805 35.4L247.038 35.8428L246.805 35.4ZM233.355 35.3L233.072 35.7123L233.078 35.716L233.355 35.3ZM229.305 31.1L228.875 31.3547L228.879 31.3611L229.305 31.1ZM227.155 26.05L226.67 26.1691L226.673 26.18L227.155 26.05ZM226.155 21.6L226.646 21.5046L226.646 21.5019L226.155 21.6ZM223.555 8.6L224.046 8.50194L223.075 8.4614L223.555 8.6ZM215.405 36.85V37.35H215.782L215.886 36.9886L215.405 36.85ZM215.005 36.85L214.526 36.9922L214.632 37.35H215.005V36.85ZM206.805 9.2L207.285 9.05784L206.317 9.09389L206.805 9.2ZM202.755 27.85L202.267 27.7439L202.267 27.7441L202.755 27.85ZM202.755 34.95L203.167 34.6667L202.755 34.95ZM204.305 35.95L204.207 36.4403L204.212 36.4412L204.305 35.95ZM206.655 36.25V36.75L206.694 35.7515L206.655 36.25ZM195.355 36.25L195.306 35.7525L195.355 36.75V36.25ZM197.905 35.8L197.774 35.3176L197.768 35.3192L197.905 35.8ZM199.755 34.6L199.382 34.2678L199.376 34.2738L199.371 34.2799L199.755 34.6ZM201.155 32.05L200.688 31.8714L200.686 31.8791L201.155 32.05ZM202.455 27.5L202.943 27.6112L202.944 27.6078L202.455 27.5ZM208.405 0.549997V0.0499973H208.004L207.917 0.442204L208.405 0.549997ZM208.655 0.549997L209.136 0.410568L209.031 0.0499973H208.655V0.549997ZM217.105 29.65L216.625 29.7894L217.107 31.4479L217.586 29.7887L217.105 29.65ZM225.505 0.549997V0.0499973H225.129L225.025 0.411329L225.505 0.549997ZM225.755 0.549997L226.227 0.383588L226.109 0.0499973H225.755V0.549997ZM226.405 3.05L225.916 3.15375L225.918 3.16255L225.92 3.17127L226.405 3.05ZM227.205 6.6L226.715 6.7005L226.718 6.71243L227.205 6.6ZM228.055 10.6L227.565 10.6958L227.567 10.7072L228.055 10.6ZM228.855 14.4L229.346 14.3019V14.3019L228.855 14.4ZM229.455 17.45L228.964 17.5444L228.965 17.5481L229.455 17.45ZM229.805 19L230.296 18.9035L230.29 18.8722L230.28 18.8419L229.805 19ZM231.255 25.05L230.774 25.1863L230.777 25.1959L231.255 25.05ZM233.605 30.35L233.18 30.6126L233.184 30.619L233.605 30.35ZM237.405 34.15L237.672 33.727L237.405 34.15ZM247.255 34.65L247.032 34.2028L247.027 34.2052L247.255 34.65ZM250.305 32.1L249.899 31.8082L250.305 32.1ZM251.755 28.45L252.25 28.5224L252.25 28.5207L251.755 28.45ZM251.205 24.05L251.674 23.8767L251.672 23.8712L251.205 24.05ZM248.755 17.65L249.222 17.4712L249.099 17.15H248.755V17.65ZM239.655 17.65V17.15H239.303L239.185 17.4818L239.655 17.65ZM238.705 21.05L239.199 21.129L239.2 21.126L238.705 21.05ZM238.705 23.05L238.222 23.1788L238.226 23.1936L238.231 23.2081L238.705 23.05ZM239.555 24.15L239.303 24.5819L239.311 24.5862L239.318 24.5902L239.555 24.15ZM241.105 24.65V25.15L241.188 24.1568L241.105 24.65ZM233.855 24.65L233.722 24.1682L233.855 25.15V24.65ZM235.405 24.05L235.642 24.4902L235.655 24.4834L235.667 24.4758L235.405 24.05ZM236.705 22.75L237.111 23.0428L237.118 23.0323L236.705 22.75ZM238.055 20.15L237.6 19.943L237.595 19.9547L238.055 20.15ZM239.905 15.8L240.368 15.9887L240.37 15.9839L239.905 15.8ZM245.955 0.499998V-1.90735e-06H245.615L245.49 0.316138L245.955 0.499998ZM246.205 0.499998L246.671 0.317594L246.547 -1.90735e-06H246.205V0.499998ZM240.205 16.2L240.67 16.3857L240.67 16.3841L240.205 16.2ZM240.005 16.75L240.47 16.9357L240.475 16.9221L240.48 16.9081L240.005 16.75ZM239.805 17.25L239.341 17.0643L239.067 17.75H239.805V17.25ZM248.605 17.25V17.75H249.328L249.073 17.0735L248.605 17.25ZM244.305 5.85L244.773 5.67354L244.317 4.46354L243.841 5.66585L244.305 5.85ZM252.905 17.6L252.44 17.7836C253.414 20.2499 253.747 22.6151 253.459 24.8871L253.955 24.95L254.451 25.0129C254.763 22.5516 254.397 20.0168 253.37 17.4164L252.905 17.6ZM253.955 24.95L253.459 24.8932C253.201 27.1519 252.477 29.1397 251.293 30.8674L251.705 31.15L252.118 31.4326C253.401 29.5603 254.177 27.4148 254.452 25.0068L253.955 24.95ZM251.705 31.15L251.295 30.8638C250.111 32.5605 248.54 33.9253 246.573 34.9572L246.805 35.4L247.038 35.8428C249.137 34.7414 250.833 33.2728 252.115 31.4362L251.705 31.15ZM246.805 35.4L246.573 34.9572C244.618 35.983 242.432 36.5 240.005 36.5V37V37.5C242.579 37.5 244.926 36.9503 247.038 35.8428L246.805 35.4ZM240.005 37V36.5C237.338 36.5 235.227 35.9469 233.633 34.884L233.355 35.3L233.078 35.716C234.884 36.9198 237.206 37.5 240.005 37.5V37ZM233.355 35.3L233.638 34.8877C231.992 33.7577 230.692 32.4079 229.732 30.8389L229.305 31.1L228.879 31.3611C229.918 33.0588 231.319 34.5089 233.072 35.7123L233.355 35.3ZM229.305 31.1L229.736 30.8453C228.791 29.2488 228.092 27.6072 227.638 25.92L227.155 26.05L226.673 26.18C227.152 27.9595 227.887 29.6846 228.875 31.3547L229.305 31.1ZM227.155 26.05L227.641 25.9309C227.209 24.1687 226.877 22.6938 226.646 21.5046L226.155 21.6L225.665 21.6954C225.9 22.9062 226.235 24.398 226.67 26.1691L227.155 26.05ZM226.155 21.6L226.646 21.5019L224.046 8.50194L223.555 8.6L223.065 8.69806L225.665 21.6981L226.155 21.6ZM223.555 8.6L223.075 8.4614L214.925 36.7114L215.405 36.85L215.886 36.9886L224.036 8.73859L223.555 8.6ZM215.405 36.85V36.35H215.005V36.85V37.35H215.405V36.85ZM215.005 36.85L215.485 36.7078L207.285 9.05784L206.805 9.2L206.326 9.34216L214.526 36.9922L215.005 36.85ZM206.805 9.2L206.317 9.09389L202.267 27.7439L202.755 27.85L203.244 27.9561L207.294 9.30611L206.805 9.2ZM202.755 27.85L202.267 27.7441C201.831 29.7561 201.62 31.3535 201.656 32.5151L202.155 32.5L202.655 32.4849C202.624 31.4465 202.813 29.9439 203.244 27.9559L202.755 27.85ZM202.155 32.5L201.656 32.5151C201.69 33.6514 201.896 34.5829 202.343 35.2333L202.755 34.95L203.167 34.6667C202.881 34.2504 202.687 33.5486 202.655 32.4849L202.155 32.5ZM202.755 34.95L202.343 35.2333C202.788 35.8797 203.42 36.2829 204.207 36.4403L204.305 35.95L204.403 35.4597C203.857 35.3505 203.456 35.087 203.167 34.6667L202.755 34.95ZM204.305 35.95L204.212 36.4412C204.934 36.5786 205.736 36.6807 206.617 36.7485L206.655 36.25L206.694 35.7515C205.842 35.6859 205.077 35.588 204.399 35.4588L204.305 35.95ZM206.655 36.25V35.75H195.355V36.25V36.75H206.655V36.25ZM195.355 36.25L195.405 36.7475C196.425 36.6456 197.306 36.4914 198.043 36.2808L197.905 35.8L197.768 35.3192C197.105 35.5086 196.286 35.6544 195.306 35.7525L195.355 36.25ZM197.905 35.8L198.037 36.2824C198.872 36.0546 199.576 35.5965 200.14 34.9201L199.755 34.6L199.371 34.2799C198.935 34.8035 198.406 35.1453 197.774 35.3176L197.905 35.8ZM199.755 34.6L200.129 34.9322C200.719 34.2686 201.213 33.3554 201.625 32.2209L201.155 32.05L200.686 31.8791C200.298 32.9446 199.859 33.7314 199.382 34.2678L199.755 34.6ZM201.155 32.05L201.622 32.2286C202.068 31.0642 202.507 29.5222 202.943 27.6112L202.455 27.5L201.968 27.3888C201.537 29.2778 201.11 30.7691 200.688 31.8714L201.155 32.05ZM202.455 27.5L202.944 27.6078L208.894 0.657791L208.405 0.549997L207.917 0.442204L201.967 27.3922L202.455 27.5ZM208.405 0.549997V1.05H208.655V0.549997V0.0499973H208.405V0.549997ZM208.655 0.549997L208.175 0.689427L216.625 29.7894L217.105 29.65L217.586 29.5106L209.136 0.410568L208.655 0.549997ZM217.105 29.65L217.586 29.7887L225.986 0.688666L225.505 0.549997L225.025 0.411329L216.625 29.5113L217.105 29.65ZM225.505 0.549997V1.05H225.755V0.549997V0.0499973H225.505V0.549997ZM225.755 0.549997L225.284 0.716407C225.473 1.25202 225.684 2.0601 225.916 3.15375L226.405 3.05L226.895 2.94625C226.66 1.83989 226.438 0.981312 226.227 0.383588L225.755 0.549997ZM226.405 3.05L225.92 3.17127C226.185 4.2298 226.45 5.40607 226.716 6.70047L227.205 6.6L227.695 6.49953C227.427 5.19393 227.159 4.00353 226.89 2.92873L226.405 3.05ZM227.205 6.6L226.718 6.71243C227.017 8.00666 227.299 9.33442 227.565 10.6958L228.055 10.6L228.546 10.5042C228.278 9.13224 227.994 7.79334 227.693 6.48757L227.205 6.6ZM228.055 10.6L227.567 10.7072C227.867 12.0713 228.133 13.3349 228.365 14.4981L228.855 14.4L229.346 14.3019C229.112 13.1317 228.844 11.862 228.544 10.4928L228.055 10.6ZM228.855 14.4L228.365 14.4981C228.598 15.6639 228.798 16.6793 228.964 17.5444L229.455 17.45L229.946 17.3556C229.779 16.4874 229.579 15.4694 229.346 14.3019L228.855 14.4ZM229.455 17.45L228.965 17.5481C229.129 18.3698 229.252 18.9218 229.331 19.1581L229.805 19L230.28 18.8419C230.225 18.6782 230.115 18.1969 229.946 17.3519L229.455 17.45ZM229.805 19L229.315 19.0965C229.717 21.1433 230.204 23.1732 230.774 25.1863L231.255 25.05L231.736 24.9137C231.174 22.9268 230.693 20.9234 230.296 18.9035L229.805 19ZM231.255 25.05L230.777 25.1959C231.388 27.1988 232.188 29.0055 233.18 30.6126L233.605 30.35L234.031 30.0874C233.089 28.5612 232.323 26.8345 231.734 24.9041L231.255 25.05ZM233.605 30.35L233.184 30.619C234.223 32.2462 235.542 33.566 237.139 34.573L237.405 34.15L237.672 33.727C236.203 32.8007 234.988 31.5872 234.027 30.081L233.605 30.35ZM237.405 34.15L237.139 34.573C238.771 35.6019 240.786 36.1 243.155 36.1V35.6V35.1C240.925 35.1 239.107 34.6315 237.672 33.727L237.405 34.15ZM243.155 35.6V36.1C244.728 36.1 246.174 35.7673 247.484 35.0948L247.255 34.65L247.027 34.2052C245.87 34.7993 244.583 35.1 243.155 35.1V35.6ZM247.255 34.65L247.479 35.0972C248.812 34.4305 249.894 33.5294 250.711 32.3918L250.305 32.1L249.899 31.8082C249.184 32.804 248.232 33.6028 247.032 34.2028L247.255 34.65ZM250.305 32.1L250.711 32.3918C251.527 31.2568 252.039 29.9641 252.25 28.5224L251.755 28.45L251.261 28.3776C251.072 29.6693 250.617 30.8099 249.899 31.8082L250.305 32.1ZM251.755 28.45L252.25 28.5207C252.464 27.0265 252.265 25.4757 251.674 23.8767L251.205 24.05L250.736 24.2233C251.279 25.691 251.447 27.0735 251.26 28.3793L251.755 28.45ZM251.205 24.05L251.672 23.8712L249.222 17.4712L248.755 17.65L248.288 17.8288L250.738 24.2288L251.205 24.05ZM248.755 17.65V17.15H239.655V17.65V18.15H248.755V17.65ZM239.655 17.65L239.185 17.4818C238.68 18.8942 238.352 20.0617 238.211 20.974L238.705 21.05L239.2 21.126C239.326 20.3049 239.631 19.2058 240.126 17.8182L239.655 17.65ZM238.705 21.05L238.212 20.971C238.073 21.8352 238.063 22.5815 238.222 23.1788L238.705 23.05L239.189 22.9212C239.081 22.5185 239.071 21.9315 239.199 21.129L238.705 21.05ZM238.705 23.05L238.231 23.2081C238.43 23.8064 238.784 24.2789 239.303 24.5819L239.555 24.15L239.807 23.7181C239.527 23.5544 239.314 23.2936 239.18 22.8919L238.705 23.05ZM239.555 24.15L239.318 24.5902C239.81 24.8549 240.381 25.0362 241.023 25.1432L241.105 24.65L241.188 24.1568C240.63 24.0638 240.168 23.9117 239.792 23.7098L239.555 24.15ZM241.105 24.65V24.15H233.855V24.65V25.15H241.105V24.65ZM233.855 24.65L233.989 25.1318C234.616 24.9576 235.169 24.7451 235.642 24.4902L235.405 24.05L235.168 23.6098C234.775 23.8215 234.295 24.009 233.722 24.1682L233.855 24.65ZM235.405 24.05L235.667 24.4758C236.176 24.1627 236.655 23.6739 237.111 23.0427L236.705 22.75L236.3 22.4573C235.889 23.0261 235.501 23.4039 235.143 23.6242L235.405 24.05ZM236.705 22.75L237.118 23.0323C237.577 22.3609 238.042 21.4609 238.516 20.3453L238.055 20.15L237.595 19.9547C237.135 21.0391 236.7 21.8724 236.293 22.4677L236.705 22.75ZM238.055 20.15L238.511 20.3569C239.014 19.2484 239.634 17.7916 240.368 15.9886L239.905 15.8L239.442 15.6114C238.71 17.4084 238.096 18.8516 237.6 19.9431L238.055 20.15ZM239.905 15.8L240.37 15.9839L246.42 0.683858L245.955 0.499998L245.49 0.316138L239.44 15.6161L239.905 15.8ZM245.955 0.499998V0.999998H246.205V0.499998V-1.90735e-06H245.955V0.499998ZM246.205 0.499998L245.74 0.682404L252.44 17.7824L252.905 17.6L253.371 17.4176L246.671 0.317594L246.205 0.499998ZM240.205 16.2L239.741 16.0143C239.67 16.1915 239.6 16.3841 239.531 16.5919L240.005 16.75L240.48 16.9081C240.544 16.7159 240.607 16.5419 240.67 16.3857L240.205 16.2ZM240.005 16.75L239.541 16.5643C239.475 16.731 239.408 16.8976 239.341 17.0643L239.805 17.25L240.27 17.4357C240.336 17.269 240.403 17.1024 240.47 16.9357L240.005 16.75ZM239.805 17.25V17.75H248.605V17.25V16.75H239.805V17.25ZM248.605 17.25L249.073 17.0735L244.773 5.67354L244.305 5.85L243.838 6.02646L248.138 17.4265L248.605 17.25ZM244.305 5.85L243.841 5.66585L239.741 16.0159L240.205 16.2L240.67 16.3841L244.77 6.03414L244.305 5.85ZM285.519 1.25L285.567 1.74767L285.519 0.749998V1.25ZM282.919 1.75L283.063 2.22891L283.07 2.22673L283.077 2.22434L282.919 1.75ZM281.119 3L280.737 2.67793L280.735 2.67991L281.119 3ZM279.669 5.6L280.129 5.79528L280.131 5.79037L279.669 5.6ZM278.069 10.05L277.593 9.89699L277.592 9.90015L278.069 10.05ZM269.619 36.95V37.45H269.986L270.096 37.0998L269.619 36.95ZM269.369 36.95L268.893 37.1013L269.003 37.45H269.369V36.95ZM259.669 6.4L259.192 6.54914L259.193 6.55131L259.669 6.4ZM258.619 3.9L258.186 4.15059L258.192 4.16072L258.619 3.9ZM257.319 2.4L257.615 1.9968V1.99679L257.319 2.4ZM255.569 1.65L255.448 2.13507L255.459 2.13796L255.471 2.14029L255.569 1.65ZM253.119 1.25V0.749998L253.068 1.74734L253.119 1.25ZM267.369 1.25L267.419 1.74752L267.369 0.749998V1.25ZM264.069 2.8L264.49 3.06957L264.495 3.06205L264.069 2.8ZM264.069 6.75L263.59 6.89205L263.591 6.89534L264.069 6.75ZM271.269 30.45L270.791 30.5953L271.263 32.1498L271.746 30.5988L271.269 30.45ZM277.769 9.6L278.246 9.74881L278.247 9.7482L277.769 9.6ZM278.819 5.1L279.317 5.14667L279.317 5.14527L278.819 5.1ZM278.519 2.65L278.077 2.88402L278.083 2.89513L278.519 2.65ZM277.119 1.6L276.992 2.08354L277.004 2.08671L277.016 2.08927L277.119 1.6ZM274.869 1.25V0.749998L274.831 1.74852L274.869 1.25ZM285.519 1.25L285.471 0.752322C284.414 0.854604 283.508 1.02672 282.761 1.27566L282.919 1.75L283.077 2.22434C283.73 2.00661 284.557 1.84539 285.567 1.74767L285.519 1.25ZM282.919 1.75L282.775 1.27108C281.999 1.50397 281.321 1.98453 280.737 2.67793L281.119 3L281.502 3.32207C281.984 2.7488 282.506 2.39603 283.063 2.22891L282.919 1.75ZM281.119 3L280.735 2.67991C280.189 3.33456 279.683 4.25284 279.207 5.40962L279.669 5.6L280.131 5.79037C280.588 4.68049 281.049 3.86544 281.503 3.32009L281.119 3ZM279.669 5.6L279.209 5.40472C278.734 6.52448 278.195 8.02381 277.593 9.89699L278.069 10.05L278.545 10.203C279.143 8.34285 279.671 6.87551 280.129 5.79527L279.669 5.6ZM278.069 10.05L277.592 9.90015L269.142 36.8002L269.619 36.95L270.096 37.0998L278.546 10.1998L278.069 10.05ZM269.619 36.95V36.45H269.369V36.95V37.45H269.619V36.95ZM269.369 36.95L269.846 36.7987L260.146 6.24869L259.669 6.4L259.193 6.55131L268.893 37.1013L269.369 36.95ZM259.669 6.4L260.146 6.25086C259.807 5.16512 259.443 4.28852 259.046 3.63927L258.619 3.9L258.192 4.16072C258.529 4.71148 258.864 5.50154 259.192 6.54914L259.669 6.4ZM258.619 3.9L259.052 3.64948C258.657 2.96697 258.18 2.41103 257.615 1.9968L257.319 2.4L257.023 2.8032C257.459 3.1223 257.848 3.56637 258.186 4.15052L258.619 3.9ZM257.319 2.4L257.615 1.99679C257.051 1.58303 256.398 1.30593 255.667 1.15971L255.569 1.65L255.471 2.14029C256.073 2.26073 256.588 2.48363 257.023 2.8032L257.319 2.4ZM255.569 1.65L255.69 1.16493C254.994 0.990716 254.152 0.854177 253.171 0.752652L253.119 1.25L253.068 1.74734C254.02 1.84582 254.811 1.97595 255.448 2.13507L255.569 1.65ZM253.119 1.25V1.75H267.369V1.25V0.749998H253.119V1.25ZM267.369 1.25L267.319 0.752479C265.597 0.924706 264.299 1.47164 263.643 2.53795L264.069 2.8L264.495 3.06205C264.905 2.39502 265.808 1.90862 267.419 1.74752L267.369 1.25ZM264.069 2.8L263.648 2.53047C262.99 3.55924 263.049 5.06659 263.59 6.89204L264.069 6.75L264.548 6.60795C264.023 4.83341 264.082 3.70742 264.49 3.06953L264.069 2.8ZM264.069 6.75L263.591 6.89534L270.791 30.5953L271.269 30.45L271.747 30.3047L264.548 6.60466L264.069 6.75ZM271.269 30.45L271.746 30.5988L278.246 9.74881L277.769 9.6L277.292 9.45119L270.792 30.3012L271.269 30.45ZM277.769 9.6L278.247 9.7482C278.85 7.80547 279.212 6.26587 279.317 5.14667L278.819 5.1L278.321 5.05333C278.226 6.06746 277.889 7.52786 277.292 9.4518L277.769 9.6ZM278.819 5.1L279.317 5.14527C279.42 4.01507 279.331 3.07282 278.955 2.40487L278.519 2.65L278.083 2.89513C278.308 3.29384 278.418 3.98492 278.321 5.05473L278.819 5.1ZM278.519 2.65L278.961 2.41605C278.591 1.71676 277.999 1.27431 277.222 1.11072L277.119 1.6L277.016 2.08927C277.506 2.19236 277.847 2.4499 278.077 2.88394L278.519 2.65ZM277.119 1.6L277.246 1.11646C276.576 0.940116 275.795 0.819748 274.907 0.751471L274.869 1.25L274.831 1.74852C275.676 1.81358 276.395 1.92655 276.992 2.08354L277.119 1.6ZM274.869 1.25V1.75H285.519V1.25V0.749998H274.869V1.25ZM292.837 33.85L292.355 33.9838L292.358 33.9961L292.362 34.0081L292.837 33.85ZM293.637 35.25L293.99 34.8964L293.637 35.25ZM294.837 35.95L294.699 36.4308L294.837 35.95ZM296.337 36.25V36.75L296.399 35.7539L296.337 36.25ZM284.837 36.25L284.778 35.7534L284.837 36.75V36.25ZM286.387 35.95L286.524 36.4308L286.387 35.95ZM287.537 35.25L287.183 34.8964L287.174 34.9057L287.165 34.9155L287.537 35.25ZM288.287 33.85L287.812 33.6919L287.808 33.7039L287.805 33.7162L288.287 33.85ZM288.287 3.65L287.805 3.78382L287.808 3.79606L287.812 3.80811L288.287 3.65ZM287.537 2.25L287.165 2.58448L287.174 2.59426L287.183 2.60355L287.537 2.25ZM286.387 1.55L286.249 2.03076L286.387 1.55ZM284.837 1.25V0.749998L284.778 1.74657L284.837 1.25ZM296.337 1.25L296.399 1.74614L296.337 0.749998V1.25ZM294.837 1.55L294.974 2.03076L294.837 1.55ZM293.637 2.25L293.99 2.60355V2.60355L293.637 2.25ZM292.837 3.65L292.362 3.49189L292.358 3.50394L292.355 3.51618L292.837 3.65ZM292.587 31.4H292.087C292.087 32.453 292.171 33.3211 292.355 33.9838L292.837 33.85L293.318 33.7162C293.169 33.1789 293.087 32.4137 293.087 31.4H292.587ZM292.837 33.85L292.362 34.0081C292.579 34.6578 292.879 35.1999 293.283 35.6036L293.637 35.25L293.99 34.8964C293.727 34.6335 293.494 34.2422 293.311 33.6919L292.837 33.85ZM293.637 35.25L293.283 35.6036C293.678 35.9988 294.153 36.2748 294.699 36.4308L294.837 35.95L294.974 35.4692C294.587 35.3585 294.262 35.1679 293.99 34.8964L293.637 35.25ZM294.837 35.95L294.699 36.4308C295.193 36.5718 295.719 36.6766 296.275 36.7461L296.337 36.25L296.399 35.7539C295.888 35.69 295.414 35.5948 294.974 35.4692L294.837 35.95ZM296.337 36.25V35.75H284.837V36.25V36.75H296.337V36.25ZM284.837 36.25L284.895 36.7466C285.484 36.6773 286.027 36.5726 286.524 36.4308L286.387 35.95L286.249 35.4692C285.812 35.594 285.323 35.6894 284.778 35.7534L284.837 36.25ZM286.387 35.95L286.524 36.4308C287.073 36.2738 287.54 35.9933 287.908 35.5845L287.537 35.25L287.165 34.9155C286.933 35.1733 286.633 35.3595 286.249 35.4692L286.387 35.95ZM287.537 35.25L287.89 35.6036C288.301 35.1928 288.586 34.6411 288.768 33.9838L288.287 33.85L287.805 33.7162C287.654 34.2589 287.439 34.6406 287.183 34.8964L287.537 35.25ZM288.287 33.85L288.761 34.0081C288.985 33.3351 289.087 32.4576 289.087 31.4H288.587H288.087C288.087 32.4091 287.988 33.1649 287.812 33.6919L288.287 33.85ZM288.587 31.4H289.087V6.1H288.587H288.087V31.4H288.587ZM288.587 6.1H289.087C289.087 5.04245 288.985 4.16486 288.761 3.49189L288.287 3.65L287.812 3.80811C287.988 4.33513 288.087 5.09088 288.087 6.1H288.587ZM288.287 3.65L288.768 3.51618C288.586 2.85892 288.301 2.30724 287.89 1.89645L287.537 2.25L287.183 2.60355C287.439 2.85942 287.654 3.24108 287.805 3.78382L288.287 3.65ZM287.537 2.25L287.908 1.91552C287.54 1.50665 287.073 1.22616 286.524 1.06924L286.387 1.55L286.249 2.03076C286.633 2.1405 286.933 2.32667 287.165 2.58448L287.537 2.25ZM286.387 1.55L286.524 1.06924C286.027 0.92737 285.484 0.822701 284.895 0.753423L284.837 1.25L284.778 1.74657C285.323 1.81063 285.812 1.90596 286.249 2.03076L286.387 1.55ZM284.837 1.25V1.75H296.337V1.25V0.749998H284.837V1.25ZM296.337 1.25L296.275 0.753859C295.719 0.823377 295.193 0.928148 294.699 1.06924L294.837 1.55L294.974 2.03076C295.414 1.90518 295.888 1.80995 296.399 1.74614L296.337 1.25ZM294.837 1.55L294.699 1.06924C294.153 1.22519 293.678 1.5012 293.283 1.89645L293.637 2.25L293.99 2.60355C294.262 2.33213 294.587 2.14147 294.974 2.03076L294.837 1.55ZM293.637 2.25L293.283 1.89645C292.879 2.30012 292.579 2.84225 292.362 3.49189L292.837 3.65L293.311 3.80811C293.494 3.25775 293.727 2.86654 293.99 2.60355L293.637 2.25ZM292.837 3.65L292.355 3.51618C292.171 4.17894 292.087 5.04698 292.087 6.1H292.587H293.087C293.087 5.08635 293.169 4.32106 293.318 3.78382L292.837 3.65ZM292.587 6.1H292.087V31.4H292.587H293.087V6.1H292.587ZM307.387 33.85L306.906 33.9838L306.909 33.9961L306.913 34.0081L307.387 33.85ZM308.187 35.25L308.541 34.8964L308.187 35.25ZM309.387 35.95L309.25 36.4308L309.387 35.95ZM310.887 36.25V36.75L310.949 35.7539L310.887 36.25ZM299.387 36.25L299.329 35.7534L299.387 36.75V36.25ZM300.937 35.95L301.075 36.4308L300.937 35.95ZM302.087 35.25L301.734 34.8964L301.725 34.9057L301.716 34.9155L302.087 35.25ZM302.837 33.85L302.363 33.6919L302.359 33.7039L302.356 33.7162L302.837 33.85ZM302.837 3.65L302.356 3.78382L302.359 3.79606L302.363 3.80811L302.837 3.65ZM302.087 2.25L301.716 2.58448L301.725 2.59426L301.734 2.60355L302.087 2.25ZM300.937 1.55L300.8 2.03076L300.937 1.55ZM299.387 1.25V0.749998L299.329 1.74657L299.387 1.25ZM316.987 3.05L316.714 3.46836L316.717 3.47059L316.987 3.05ZM321.137 7.55L320.69 7.77363L320.694 7.78016L321.137 7.55ZM321.137 19.25L321.581 19.4802L321.137 19.25ZM316.937 23.75L316.667 23.3294L316.664 23.3316L316.937 23.75ZM310.037 25.55H309.537V26.05H310.037V25.55ZM310.037 25.3V24.8H309.537V25.3H310.037ZM314.687 23.55L314.349 23.1822L314.344 23.1868L314.687 23.55ZM317.537 19.2L318.007 19.3716L318.008 19.3687L317.537 19.2ZM317.537 7.85L317.064 8.01083L317.068 8.0216L317.537 7.85ZM314.737 3.45L314.399 3.81777L314.737 3.45ZM308.637 1.85L308.727 2.34193L308.748 2.33807L308.769 2.33238L308.637 1.85ZM307.737 2.4L307.343 2.09303L307.332 2.10745L307.321 2.12265L307.737 2.4ZM307.287 3.7L307.779 3.79215L307.78 3.78689L307.287 3.7ZM307.137 31.4H306.637C306.637 32.453 306.722 33.3211 306.906 33.9838L307.387 33.85L307.869 33.7162C307.72 33.1789 307.637 32.4137 307.637 31.4H307.137ZM307.387 33.85L306.913 34.0081C307.13 34.6578 307.43 35.1999 307.834 35.6036L308.187 35.25L308.541 34.8964C308.278 34.6335 308.045 34.2422 307.862 33.6919L307.387 33.85ZM308.187 35.25L307.834 35.6036C308.229 35.9988 308.704 36.2748 309.25 36.4308L309.387 35.95L309.525 35.4692C309.137 35.3585 308.812 35.1679 308.541 34.8964L308.187 35.25ZM309.387 35.95L309.25 36.4308C309.744 36.5718 310.269 36.6766 310.825 36.7461L310.887 36.25L310.949 35.7539C310.439 35.69 309.964 35.5948 309.525 35.4692L309.387 35.95ZM310.887 36.25V35.75H299.387V36.25V36.75H310.887V36.25ZM299.387 36.25L299.446 36.7466C300.035 36.6773 300.578 36.5726 301.075 36.4308L300.937 35.95L300.8 35.4692C300.363 35.594 299.874 35.6894 299.329 35.7534L299.387 36.25ZM300.937 35.95L301.075 36.4308C301.624 36.2738 302.091 35.9933 302.459 35.5845L302.087 35.25L301.716 34.9155C301.484 35.1733 301.184 35.3595 300.8 35.4692L300.937 35.95ZM302.087 35.25L302.441 35.6036C302.852 35.1928 303.137 34.6411 303.319 33.9838L302.837 33.85L302.356 33.7162C302.205 34.2589 301.99 34.6406 301.734 34.8964L302.087 35.25ZM302.837 33.85L303.312 34.0081C303.536 33.3351 303.637 32.4576 303.637 31.4H303.137H302.637C302.637 32.4091 302.539 33.1649 302.363 33.6919L302.837 33.85ZM303.137 31.4H303.637V6.1H303.137H302.637V31.4H303.137ZM303.137 6.1H303.637C303.637 5.04245 303.536 4.16486 303.312 3.49189L302.837 3.65L302.363 3.80811C302.539 4.33513 302.637 5.09088 302.637 6.1H303.137ZM302.837 3.65L303.319 3.51618C303.137 2.85892 302.852 2.30724 302.441 1.89645L302.087 2.25L301.734 2.60355C301.99 2.85942 302.205 3.24108 302.356 3.78382L302.837 3.65ZM302.087 2.25L302.459 1.91552C302.091 1.50665 301.624 1.22616 301.075 1.06924L300.937 1.55L300.8 2.03076C301.184 2.1405 301.484 2.32667 301.716 2.58448L302.087 2.25ZM300.937 1.55L301.075 1.06924C300.578 0.92737 300.035 0.822701 299.446 0.753423L299.387 1.25L299.329 1.74657C299.874 1.81063 300.363 1.90596 300.8 2.03076L300.937 1.55ZM299.387 1.25V1.75H310.037V1.25V0.749998H299.387V1.25ZM310.037 1.25V1.75C312.767 1.75 314.982 2.33463 316.714 3.46835L316.987 3.05L317.261 2.63165C315.327 1.36537 312.908 0.749998 310.037 0.749998V1.25ZM316.987 3.05L316.717 3.47059C318.516 4.62714 319.834 6.06205 320.69 7.77361L321.137 7.55L321.585 7.32639C320.64 5.43795 319.192 3.87286 317.258 2.62941L316.987 3.05ZM321.137 7.55L320.694 7.78016C321.589 9.50646 322.037 11.3771 322.037 13.4H322.537H323.037C323.037 11.2229 322.553 9.19354 321.581 7.31984L321.137 7.55ZM322.537 13.4H322.037C322.037 15.4229 321.589 17.2935 320.694 19.0198L321.137 19.25L321.581 19.4802C322.553 17.6065 323.037 15.5771 323.037 13.4H322.537ZM321.137 19.25L320.694 19.0198C319.804 20.7351 318.467 22.1721 316.667 23.3294L316.937 23.75L317.208 24.1706C319.141 22.9279 320.604 21.3649 321.581 19.4802L321.137 19.25ZM316.937 23.75L316.664 23.3316C314.931 24.466 312.732 25.05 310.037 25.05V25.55V26.05C312.876 26.05 315.278 25.434 317.211 24.1684L316.937 23.75ZM310.037 25.55H310.537V25.3H310.037H309.537V25.55H310.037ZM310.037 25.3V25.8C312.018 25.8 313.695 25.1768 315.031 23.9132L314.687 23.55L314.344 23.1868C313.213 24.2565 311.79 24.8 310.037 24.8V25.3ZM314.687 23.55L315.026 23.9178C316.356 22.6933 317.348 21.1743 318.007 19.3716L317.537 19.2L317.068 19.0284C316.46 20.6923 315.553 22.0734 314.349 23.1822L314.687 23.55ZM317.537 19.2L318.008 19.3687C318.662 17.5436 318.987 15.586 318.987 13.5H318.487H317.987C317.987 15.4806 317.679 17.3231 317.067 19.0313L317.537 19.2ZM318.487 13.5H318.987C318.987 11.4141 318.662 9.47204 318.007 7.6784L317.537 7.85L317.068 8.0216C317.679 9.69463 317.987 11.5193 317.987 13.5H318.487ZM317.537 7.85L318.011 7.68921C317.386 5.85015 316.409 4.3102 315.076 3.08223L314.737 3.45L314.399 3.81777C315.599 4.92313 316.489 6.31651 317.064 8.01079L317.537 7.85ZM314.737 3.45L315.076 3.08223C313.709 1.82306 312.018 1.2 310.037 1.2V1.7V2.2C311.79 2.2 313.232 2.7436 314.399 3.81777L314.737 3.45ZM310.037 1.7V1.2H309.937V1.7V2.2H310.037V1.7ZM309.937 1.7V1.2C309.406 1.2 308.926 1.25291 308.506 1.36762L308.637 1.85L308.769 2.33238C309.082 2.24708 309.469 2.2 309.937 2.2V1.7ZM308.637 1.85L308.548 1.35806C308.058 1.44721 307.65 1.69804 307.343 2.09303L307.737 2.4L308.132 2.70697C308.292 2.50195 308.484 2.38612 308.727 2.34193L308.637 1.85ZM307.737 2.4L307.321 2.12265C307.067 2.50429 306.901 3.0143 306.795 3.61311L307.287 3.7L307.78 3.78689C307.874 3.25236 308.008 2.8957 308.153 2.67735L307.737 2.4ZM307.287 3.7L306.796 3.60785C306.688 4.18561 306.637 4.9544 306.637 5.9H307.137H307.637C307.637 4.97893 307.687 4.28105 307.779 3.79214L307.287 3.7ZM307.137 5.9H306.637V31.4H307.137H307.637V5.9H307.137Z" fill="#623D2A" mask="url(#path-1-outside-1_321_1751)"/>
</svg>
